<?xml version="1.0" standalone="no"?>
<!DOCTYPE svg PUBLIC "-//W3C//DTD SVG 1.1//EN" "http://www.w3.org/Graphics/SVG/1.1/DTD/svg11.dtd" >
<svg xmlns="http://www.w3.org/2000/svg">
<metadata></metadata>
<defs>
<font id="trajanpro-boldbold" horiz-adv-x="1228" >
<font-face units-per-em="2048" ascent="1536" descent="-512" />
<missing-glyph horiz-adv-x="614" />
<glyph horiz-adv-x="2048" />
<glyph horiz-adv-x="2048" />
<glyph unicode="&#xd;" horiz-adv-x="681" />
<glyph unicode=" "  horiz-adv-x="614" />
<glyph unicode="&#x09;" horiz-adv-x="614" />
<glyph unicode="&#xa0;" horiz-adv-x="614" />
<glyph unicode="!" horiz-adv-x="655" d="M182 1394q0 12 11 27q66 80 184 129q43 20 78 21q18 0 18 -27l-33 -264q0 -4 -5 -48t-15 -156t-23 -228q-25 -289 -43 -447q-5 -65 -30 -65t-31 74q-43 487 -51 557q-22 322 -56 404q-4 11 -4 23zM215 79q0 44 30 81t81 37t86 -29q32 -31 32 -82t-34 -86t-85 -35 q-52 0 -81 35t-29 79z" />
<glyph unicode="&#x22;" horiz-adv-x="737" d="M119 1516q0 20 24 24q21 6 80 6t80 -6q25 -4 25 -24q0 -8 -12 -48t-33 -134q-19 -94 -31 -202t-28 -108t-28 108t-32 202q-20 93 -32 133t-13 49zM410 1516q0 20 24 24q21 6 80 6t80 -6q25 -4 24 -24q0 -8 -12 -48t-32 -134t-32 -202t-28 -108t-29 102q-17 195 -63 341 q-12 40 -12 49z" />
<glyph unicode="#" d="M59 469v166h267l47 307h-252v168h274l66 434h125l-68 -434h309l64 434h123l-64 -434h219v-168h-241l-45 -307h229v-166h-252l-67 -469h-121l63 469h-311l-70 -469h-123l72 469h-244zM449 635h313l43 307h-307z" />
<glyph unicode="$" d="M197 169q0 79 30 210q11 49 29 49t16 -55q-8 -113 60 -187q82 -92 200 -92l66 604q-178 134 -256 242t-78 246q0 174 137 272q139 96 297 96l21 164q4 16 22 19l62 14q8 2 12 0q6 -4 4 -10l-24 -187q127 0 225 -38q20 -8 29 -17q6 -12 6 -78t-25 -182q-6 -29 -24 -29 t-19 39q-2 98 -61 158q-25 27 -68 44t-72 17l-63 -555q172 -115 256 -225t84 -272q0 -163 -109 -281q-91 -87 -225 -123q-57 -12 -108 -12l-19 -166q-4 -14 -20 -16l-64 -13q-19 -5 -14 21l20 174q-152 0 -258 43q-47 18 -57 35q-12 12 -12 91zM450 1235q0 -72 47 -129 q46 -57 136 -133l55 495q-41 0 -70 -10q-25 -4 -77 -31q-37 -23 -66 -71q-25 -49 -25 -121zM635 94q102 6 169 79t66 183q0 158 -180 281z" />
<glyph unicode="%" horiz-adv-x="1777" d="M76 1152q0 148 98 266t289 118q291 0 641 37q139 10 150 10t12 -8q-4 -11 -10 -27t-13 -32l-588 -1500q-10 -22 -20 -24l-129 -17q-20 -3 -24 3t22 68q28 62 153 348t220 500q94 214 174 402t86 197q-246 -20 -451 -33v-4q55 -34 93 -110t38 -172q0 -156 -95 -274 q-94 -118 -278 -118t-276 111t-92 259zM252 1176q0 -124 54 -224t144 -100t140 82q53 78 53 206t-57 224q-54 100 -146 100t-139 -84q-49 -80 -49 -204zM958 372q0 150 95 263q94 117 278 117q183 0 277 -111t94 -259t-96 -264q-96 -118 -279 -118q-184 0 -276 111 q-93 111 -93 261zM1135 394q0 -124 53 -226q55 -98 143 -98t144 82q51 84 51 208t-56 222q-56 100 -148 100q-91 0 -138 -84q-49 -80 -49 -204z" />
<glyph unicode="&#x26;" horiz-adv-x="1699" d="M119 420q0 160 107 292t227 191q-103 135 -105 283t124 266q126 119 374 119q141 0 248 -43q35 -12 34 -53q0 -143 -22 -263q-4 -35 -25 -34q-14 0 -14 39q0 100 -59 172q-78 92 -228 92q-82 0 -149 -60q-70 -55 -70 -174q0 -67 49 -182q16 -38 70 -105t58 -72t37 -42 q34 -37 77 -84t49 -53q66 -76 361 -342q39 55 67 141q31 86 31 160q0 138 -139 139q-25 0 -25 18t33 19q123 0 246 -15q70 -8 69 -41q0 -120 -54 -248t-147 -237q258 -213 402 -250q67 -23 99 -23t32 -18t-61 -18h-158q-172 0 -261 28t-222 130q-52 -47 -94 -78t-150 -70 t-254 -39t-264 46t-174 116q-119 133 -119 293zM365 526q0 -196 114 -315q115 -117 279 -117q100 0 194 39t142 84q-213 186 -370 353t-218 255q-141 -103 -141 -299z" />
<glyph unicode="'" horiz-adv-x="446" d="M119 1516q0 20 24 24q21 6 80 6t80 -6q25 -4 25 -24q0 -8 -12 -48t-33 -134q-19 -94 -31 -202t-28 -108t-28 108t-32 202q-20 93 -32 133t-13 49z" />
<glyph unicode="(" horiz-adv-x="737" d="M117 629q0 149 51 313q85 248 280 460q67 73 127 114q15 12 27 12t12 -14t-12 -25q-92 -111 -192 -344q-95 -236 -95 -488q0 -502 283 -862q16 -23 16 -31q0 -14 -16 -14q-4 0 -49 30t-113 105q-72 74 -147 185q-76 104 -124 257t-48 302z" />
<glyph unicode=")" horiz-adv-x="737" d="M123 -236q0 14 12 25q92 111 193 344q94 236 94 488q0 502 -283 862q-16 23 -16 33t10 12q9 0 55 -30t113 -105q72 -74 148 -185q75 -104 123 -257q95 -305 -3 -615q-85 -246 -279 -460q-66 -73 -128 -114q-14 -12 -26 -12t-13 14z" />
<glyph unicode="*" horiz-adv-x="778" d="M100 1461q0 28 5 33t34 5t107 -53t110 -86q6 -4 15 -2q2 2 -1 40t-37 114q-34 78 -34 85q0 17 57 37t95 21q20 0 20 -23q0 -59 -68 -262q-2 -2 0 -12q2 -2 11 0q70 20 186 121q14 20 28 20t31 -61q18 -61 19 -97q0 -14 -21 -16q-2 -2 -99 0t-136 4l-4 -2q-14 -1 1 -23 t79 -73t91 -57q26 -6 25 -21q0 -23 -53 -63q-49 -43 -66 -43t-36 28q-43 92 -72 211q-6 12 -10 12t-6 -6q-8 -10 -41 -98t-33 -119q0 -16 -34 -16t-83 18q-45 23 -45 36t21 34q14 18 90 86q86 70 100 78q6 6 6 12t-8 6q-68 12 -184 2l-35 -4q-8 0 -19 53q-6 53 -6 81z" />
<glyph unicode="+" horiz-adv-x="1124" d="M82 457v125h414v417h131v-417h415v-125h-415v-418h-131v418h-414z" />
<glyph unicode="," horiz-adv-x="512" d="M131 145q0 51 53 97q47 45 101 45q8 0 20 -8q76 -96 76 -142q0 -47 -27 -106q-78 -172 -161 -273q-29 -24 -34 -24t-12 6q-6 6 -6 14l17 35q59 103 59 163t-20 105q-29 43 -47 63t-19 25z" />
<glyph unicode="-" horiz-adv-x="870" d="M74 477l30 141q4 20 14 24t36 3h581q66 0 66 -29q0 -20 -21 -26q-23 -10 -71 -19l-283 -47q-212 -39 -238 -48t-57 -22t-41 -14q-25 0 -16 37z" />
<glyph unicode="." horiz-adv-x="512" d="M131 125q0 49 33 84q33 41 90 41t92 -33t35 -86t-35 -92t-93 -39t-90 38t-32 87z" />
<glyph unicode="/" horiz-adv-x="1110" d="M37 8q-14 8 0 35l934 1516q12 20 28 10l74 -45q14 -6 2 -25l-940 -1526q-12 -20 -26 -12z" />
<glyph unicode="0" d="M84 723q0 522 240 733q125 115 307 115q115 0 209 -48t147 -124q57 -74 92 -176q66 -192 66 -408q0 -393 -144 -618q-143 -231 -403 -232q-117 0 -208 51t-148 131q-158 230 -158 576zM324 801q0 -422 133 -629q74 -115 180 -115q123 0 194 189q74 186 74 489 q0 413 -137 629q-74 115 -188 115t-185 -171q-72 -171 -71 -507z" />
<glyph unicode="1" d="M213 1197q1 19 23 34q22 13 49 31t83 54t189 126q93 59 141 94t62 35q25 0 24 -43q0 -12 -2 -29l-6 -184q-4 -82 -4 -320v-379q0 -381 5 -444t22 -94q36 -45 198 -45q18 0 19 -21q0 -18 -33 -18l-209 2q-80 4 -134 4t-142 -4l-207 -2q-35 0 -35 19t16 20q189 0 228 47 q16 27 18 76q14 128 10 460l-2 326v268q0 35 -1 46t-9 18q-4 10 -20 10t-66 -18q-118 -55 -142 -67q-40 -21 -58 -21q-17 0 -17 19z" />
<glyph unicode="2" d="M80 30q0 14 33 44q33 28 96 86q74 61 92 80t79 75q60 55 88 83t42 44t66 74t69 86q19 28 39 64t46 80q26 42 56 145t29 204q0 212 -102 308q-87 70 -178 72q-137 0 -218 -74q-35 -35 -59 -94q-27 -55 -27 -99t-26 -43q-16 0 -19 39q-12 111 -12 248q0 27 25 41 q152 78 388 78t367 -121q129 -123 129 -315q0 -74 -26 -168q-37 -101 -66 -159t-102 -153q-59 -63 -119 -135q-114 -114 -391 -340q-10 -6 -6 -10t10 -4h139q264 0 352 12q193 20 234 182q8 33 24 33t17 -35q0 -35 -23 -137q-14 -87 -31 -145t-53 -67t-131 -9h-802 q-29 0 -29 30z" />
<glyph unicode="3" d="M119 72q0 295 37 295q18 0 18 -29q0 -109 81 -191q81 -81 235 -81t258 88t104 262q0 96 -39 174q-86 163 -307 215q-66 12 -66 35q0 22 40 30q90 17 188 91q127 96 127 261q0 85 -66 168t-197 83q-131 1 -213 -63t-81 -155q0 -31 -19 -30q-12 0 -16 28q-14 106 -15 205 q0 27 29 39q168 74 335 74q301 0 411 -117q49 -59 65 -100t16 -86q0 -134 -104 -234t-195 -135v-4q61 -14 123 -43q56 -31 114 -77t93 -122t35 -161q0 -221 -178 -374t-469 -153q-223 0 -309 49q-35 18 -35 58z" />
<glyph unicode="4" d="M31 434q0 20 16 40t308 404q292 385 394 519q101 135 103 137q34 37 56 37t22 -35v-115q-2 -76 -2 -192v-666h157q29 0 64 10l31 11q18 0 18 -20t-12 -65q-12 -46 -24 -71t-54 -25h-180q0 -180 4 -238t22 -86q30 -46 158 -46q18 1 18 -19t-32 -20l-172 2q-70 4 -121 4 t-117 -4l-160 -2q-33 0 -32 18q0 20 16 21q140 0 168 40q20 28 26 89t5 241h-629q-51 0 -51 31zM248 563h463v633h-6q-225 -324 -457 -633z" />
<glyph unicode="5" d="M162 169q0 124 8 171q10 37 23 37q18 0 18 -35q0 -274 278 -274q137 0 238 94q100 94 100 280q0 115 -57 209q-55 93 -143 149q-175 110 -318 128q-41 6 -37 41l47 540q2 27 39 27h502q74 0 115 8l24 4q10 2 17 2q20 0 20 -39q0 -100 -26 -262q-2 -25 -23 -24 q-16 1 -16 41t-33 69q-39 29 -147 29h-373l-29 -250q263 -43 451 -170q104 -68 166 -172t61 -218q0 -114 -39 -218q-43 -102 -119 -184t-209 -134q-134 -52 -278 -53q-144 0 -221 37q-23 10 -31 26t-8 141z" />
<glyph unicode="6" d="M84 568q0 288 215 571q211 287 545 420q26 12 48 12t21 -19q1 -18 -71 -57t-163 -127q-210 -203 -292 -481q-47 -165 -47 -347t82 -335q86 -150 229 -150q115 0 185 88q74 85 74 269t-87 293q-90 104 -202 104q-57 0 -86 -9t-37 -9q-24 -9 -29 -9q-16 0 -16 18t22 34 q104 74 266 73q201 0 310 -129t108 -286q0 -233 -151 -381q-156 -146 -390 -146t-384 157q-150 158 -150 446z" />
<glyph unicode="7" d="M144 1206q0 45 10 131t13 120t5 67t23 32q13 0 41 -8l47 -4q32 -8 188 -8h655q49 0 50 -16q0 -20 -15 -37q-129 -185 -314 -653t-206 -664v-76q0 -33 -95 -79t-163 -46q-29 0 -29 33t15 76q49 174 226 557t376 717h-531q-137 0 -192 -37q-25 -15 -44 -55q-18 -40 -22 -68 t-21 -27q-17 0 -17 45z" />
<glyph unicode="8" d="M86 354q0 176 107 289q106 119 270 182q-297 154 -297 375q0 57 27 127q33 63 83 119q56 57 154 91t221 34q195 0 305 -84q115 -79 115 -227t-96 -244t-205 -137q277 -150 338 -293q35 -80 35 -166q0 -193 -148 -322q-145 -133 -387 -133t-381 109q-141 104 -141 280z M317 379q0 -137 89 -227q86 -92 208 -92t209 83q82 88 82 211t-67 215q-73 87 -215 170q-44 25 -64 37q-242 -137 -242 -397zM379 1246q0 -93 63 -169q72 -72 211 -151q201 90 201 313q0 111 -63 178q-71 66 -177 66t-170 -72t-65 -165z" />
<glyph unicode="9" d="M86 1094q0 207 143 344q149 133 385 133t374 -157t138 -400q0 -164 -55 -318q-97 -272 -326 -477q-188 -172 -374 -258q-15 -8 -35 -8t-20 16t24 39q82 47 173 135q224 217 306 482q53 154 53 331q0 256 -90 390q-92 133 -211 133t-186 -86q-70 -84 -70 -207 q0 -220 111 -326q90 -72 162 -74q125 0 170 45h6l4 3q16 0 16 -19q0 -12 -10 -22q-88 -95 -280 -95t-301 123q-106 125 -107 273z" />
<glyph unicode=":" horiz-adv-x="512" d="M131 186q0 49 33 84q33 41 90 41q57 -1 92 -33t35 -85t-35 -95q-35 -37 -93 -37t-90 38t-32 87zM131 879q0 47 32 86t90 39t93 -33t35 -86t-35 -92t-93 -39t-90 39t-32 86z" />
<glyph unicode=";" horiz-adv-x="512" d="M131 166q0 51 53 96q47 45 101 45q8 0 20 -8q76 -96 76 -142t-27 -106q-78 -172 -161 -272q-29 -25 -34 -25t-12 6q-6 6 -6 15l17 35q59 102 59 162t-20 106q-29 43 -45 57q-21 25 -21 31zM131 879q0 49 33 84q29 41 88 41t94 -33t35 -86t-35 -92t-93 -39t-90 38t-32 87z " />
<glyph unicode="&#x3c;" horiz-adv-x="1124" d="M82 449v143l960 409v-137l-804 -344l804 -344v-137z" />
<glyph unicode="=" horiz-adv-x="1124" d="M82 262v125h960v-125h-960zM82 649v125h960v-125h-960z" />
<glyph unicode="&#x3e;" horiz-adv-x="1124" d="M82 39v137l805 344l-805 344v137l960 -409v-143z" />
<glyph unicode="?" horiz-adv-x="1089" d="M127 1456q0 16 23 33q137 82 364 82q228 0 330 -94t102 -228t-64 -230q-64 -95 -96 -133q-30 -38 -94 -102q-86 -94 -94 -104q-104 -123 -104 -181t32 -104q16 -27 17 -37q0 -16 -21 -16q-22 0 -108 69t-86 120t41 108q128 154 135 164q98 135 139 227t41 194t-57 181 q-61 76 -189 76t-192 -80q-66 -88 -72 -170q-4 -41 -18 -41t-22 31t-7 235zM362 79q0 44 30 81t81 37t86 -29q33 -31 33 -82t-34 -86t-86 -35t-81 35t-29 79z" />
<glyph unicode="@" horiz-adv-x="1847" d="M135 489q0 244 135 463q142 221 352 348t435 127q324 0 495 -159q168 -162 168 -426q0 -154 -74 -289t-208 -227q-133 -92 -275 -93q-141 0 -157 191q-2 63 6 125q-102 -139 -192 -223t-168 -84t-110 52t-32 120q0 299 240 497q61 49 159 101q97 47 157 47t116 -17 q47 53 100 68q14 2 20 -7t3 -24q-45 -98 -74 -255t-29 -273q0 -186 111 -186q100 0 198 124q103 123 103 347t-150 374t-422 150q-334 0 -546 -242q-213 -248 -213 -612q-1 -281 159 -443t416 -161q190 0 307 47t224 137q53 41 65 12q8 -18 -35 -61q-90 -90 -254 -157 t-352 -66q-293 0 -485 173t-193 502zM715 520q0 -133 39 -133q82 0 274 266q47 188 86 293q-39 29 -94 29q-168 0 -250 -193q-55 -129 -55 -262z" />
<glyph unicode="A" horiz-adv-x="1433" d="M-131 14q0 16 21 16q22 0 78 8q56 7 94 53t69 128l514 1286q27 55 35 69q7 13 20 13h2q23 0 52 -65q8 -16 208 -520t292 -722q92 -219 188 -241q35 -8 74 -8t38 -17q0 -20 -132 -20t-349 4q-61 2 -61 16t20 18t27 17q6 16 0 31l-164 434q-7 14 -21 14h-456q-12 0 -19 -16 l-110 -293q-31 -76 -31 -125q0 -63 82 -63h31q31 0 30 -17q0 -20 -34 -20l-109 2q-53 4 -108 4l-89 -4q-59 -2 -153 -2q-39 0 -39 20zM451 645q-2 -14 8 -14h377q12 0 10 12l-184 506q-2 18 -10 18t-13 -18z" />
<glyph unicode="B" horiz-adv-x="1447" d="M129 1524q0 18 45 18l166 -2q66 -4 130 -4t120 4l112 2q130 0 224 -33t136 -83t60 -95q16 -53 17 -96q-1 -113 -55 -196t-154 -162q145 -51 262 -164q111 -117 111 -288q-1 -171 -143 -304t-404 -133q-31 0 -64 4l-80 2q-92 6 -164 6t-106 -2l-141 -4q-41 0 -41 18t37 18 t69 9q46 9 58 109t12 440v360q0 348 -3 416t-21 98q-18 29 -56 36q-37 7 -82 7q-45 1 -45 19zM582 301q0 -109 12 -143t65 -57q53 -21 145 -21t169 60q78 60 78 202q0 270 -199 408q-61 43 -170 49q-25 2 -88 2q-12 0 -12 -15v-485zM582 913q0 -20 20 -24t106 -4t132 39 q84 68 84 201t-68 233t-188 100q-39 0 -68 -4q-18 -6 -18 -35v-506z" />
<glyph unicode="C" horiz-adv-x="1638" d="M113 793q0 135 54 289t185 272q236 217 647 217q147 0 297 -21q37 -2 105 -18q79 -14 105 -17t26 -24l-6 -57q-10 -40 -10 -277q-4 -47 -24 -47t-22 45q-8 208 -245 279q-112 36 -243 36h-7q-246 0 -385 -127q-188 -172 -189 -530q1 -176 61 -318q60 -143 158 -231 t210 -134t235 -46t211 24t144 88t71 138q2 12 8 33q6 8 19 8q18 0 18 -33t-16 -121q-12 -98 -26 -145t-56 -64q-123 -47 -369 -47q-446 0 -702 223q-254 223 -254 605z" />
<glyph unicode="D" horiz-adv-x="1916" d="M129 1524q0 18 45 18l166 -2q72 -4 131 -4t133 4l180 2q109 0 195 -3t219 -25t227 -72q98 -47 181 -133q198 -205 198 -536t-223 -556q-98 -98 -266 -170t-420 -72q-80 1 -236 13t-220 12t-97 -2l-141 -4q-41 0 -41 18t37 18t69 9q46 9 58 109t12 440v360q0 348 -3 416 t-21 98q-18 29 -56 36q-37 7 -82 7q-45 1 -45 19zM592 723q0 -311 5 -427t21 -142q55 -82 269 -82q301 0 472 147t171 491t-205 540t-573 196q-106 0 -134 -14q-26 -10 -26 -50v-401v-258z" />
<glyph unicode="E" horiz-adv-x="1294" d="M129 1524q0 18 46 18t83 -2h82l129 -4q485 0 538 5t66 11q8 0 29 7h2q10 0 10 -13q0 -14 -4 -22l-6 -45q-2 -27 -6 -72v-6q-4 -15 -6 -65t-5 -64q-4 -23 -21 -23t-17 37q0 80 -52 115q-27 16 -94 24t-295 9q-14 0 -14 -21v-518q0 -23 14 -23q266 0 335 6t91 29 q20 27 34 27t13 -16l-8 -70q0 -8 -8 -80q0 -27 -2 -49l-6 -88q-1 -39 -19 -39t-18 18q-6 70 -8 74q-14 70 -115 80q-57 6 -291 6q-12 0 -12 -20v-480q4 -109 49 -139q41 -33 189 -33t200 25q72 35 92 151q6 31 22 31t17 -37q0 -123 -26 -227q-9 -35 -27 -44t-84 -9l-567 12 q-84 0 -117 -2l-141 -4q-41 0 -41 18t37 18t69 9q46 9 58 109t12 440v360q0 348 -3 416t-21 98q-18 29 -56 36q-37 7 -82 7q-45 1 -45 19z" />
<glyph unicode="F" horiz-adv-x="1273" d="M129 1524q0 18 46 18t83 -2h84l129 -4q510 0 557 2t71 11q23 9 33 9t11 -18l-17 -92l-4 -80q-4 -70 -7 -92t-20 -23q-17 0 -19 41t-13 70q-27 57 -135 61l-316 7q-18 0 -18 -29v-512q0 -18 14 -19l262 2q74 0 93 3q59 2 81 29t33 28q13 0 13 -14t-5 -27l-6 -49l-6 -56 q-8 -74 -8 -131t-21 -57q-16 0 -16 28t-12 64q-20 66 -105 74q-51 6 -303 6q-14 0 -14 -18v-166q0 -340 8 -416t25 -98q18 -43 151 -43q43 -1 43 -19t-45 -18l-184 2q-74 4 -128 4t-120 -4l-139 -2q-43 0 -43 18t36 18t68 9q46 9 58 109t12 440v360q0 348 -3 416t-21 98 q-18 29 -56 36q-37 7 -82 7q-45 1 -45 19z" />
<glyph unicode="G" horiz-adv-x="1814" d="M112 782q0 214 101 389q105 177 245 261t270 112q126 27 301 27h13h14q175 0 294 -25q124 -26 194 -30q29 -4 29 -25v-4q-4 -9 -4 -23t-8 -118l-2 -191q0 -43 -23 -43q-18 0 -20 27q-16 113 -72 171t-175 108q-118 50 -280 50q-250 0 -405 -127q-188 -157 -188 -497 t196 -557q197 -217 516 -217q123 0 174 22q39 18 39 76v192q0 201 -3 248q-6 94 -75 109q-37 8 -80 8t-43 18t43 19q94 0 166 -4l131 -2l117 2q59 4 111 4t53 -21q-1 -16 -23 -16t-59 -6q-74 -14 -78 -117q-2 -41 -2 -246v-225q0 -37 -4 -50t-23 -24q-176 -92 -493 -92 q-399 0 -660 189q-131 94 -211 252q-76 162 -76 376z" />
<glyph unicode="H" horiz-adv-x="1990" d="M129 1524q0 18 43 18l168 -2q72 -4 126 -4t120 4l139 2q43 0 43 -18t-30 -18q-97 -2 -124 -42q-16 -36 -19 -102t-3 -414v-43q0 -14 12 -14h782q12 0 13 14v43q0 348 -3 418t-24 96q-22 43 -145 43q-35 1 -35 19t43 18l168 -2q72 -4 126 -4t118 4l141 2q43 0 43 -18 t-30 -18q-105 -2 -122 -42q-16 -28 -20 -98t-4 -418v-360q0 -340 10 -439t80 -110q51 -8 94 -8q43 -1 43 -19t-41 -18l-188 2q-76 4 -129 4t-117 -4l-141 -2q-43 0 -43 18q1 18 37 18t69 9q45 9 57 109t13 440v180q0 12 -13 12h-782q-12 0 -12 -12v-180q0 -340 9 -439 t81 -110q51 -8 94 -8q43 -1 43 -19t-41 -18l-188 2q-76 4 -129 4t-117 -4l-143 -2q-41 0 -41 18t37 18t69 9q46 9 58 109t12 440v360q0 348 -3 416t-21 98q-18 29 -56 36q-37 7 -82 7q-45 1 -45 19z" />
<glyph unicode="I" horiz-adv-x="925" d="M205 1542l139 -2q68 -4 124 -4t118 4l135 2q43 0 43 -18t-29 -18q-104 -2 -121 -42q-16 -28 -20 -98t-4 -418v-360q0 -368 7 -432t24 -86q22 -39 163 -39q33 -1 33 -19t-39 -18l-188 2q-76 4 -129 4t-117 -4l-143 -2q-41 0 -41 18t37 18t69 9q50 11 60 105t10 444v360 q0 348 -5 441t-69 108q-27 8 -67 8q-39 0 -39 20q0 17 49 17z" />
<glyph unicode="J" horiz-adv-x="851" d="M39 -518q0 12 44 36t99 79q109 109 129 258q25 149 25 505v588q0 348 -3 416t-21 98q-18 29 -56 36q-37 7 -82 7q-45 1 -45 19t45 18l166 -2q70 -4 124 -4t118 4l141 2q43 0 43 -18t-30 -18q-105 -2 -122 -42q-16 -28 -20 -98t-4 -418v-379q0 -76 4 -139l2 -149 q0 -223 -49 -363q-78 -219 -348 -387q-108 -64 -144 -66q-16 0 -16 17z" />
<glyph unicode="K" horiz-adv-x="1572" d="M129 1524q0 18 45 18l166 -2q70 -4 122 -4t116 4l131 2q43 0 43 -18t-24 -18q-100 -2 -118 -42q-16 -28 -20 -98t-4 -418v-90h10q6 6 30 32q61 66 280 292q220 226 220 280q0 35 -28 41q-28 7 -27 23q0 16 33 16l100 -2q56 -4 114 -4t118 4l118 2q35 0 35 -18 q-1 -18 -43 -18t-128 -32t-199 -145q-285 -276 -443 -442q58 -74 270 -304q371 -401 493 -477q121 -75 210 -75h2q27 -1 27 -19t-49 -18h-179q-84 0 -148 5t-115 33q-49 28 -117 86t-289 314t-263 311l-22 31h-10v-186q0 -348 6 -443t74 -106q51 -8 89 -8q38 -1 38 -19 t-39 -18l-172 2q-70 4 -122 4t-116 -4l-143 -2q-41 0 -41 18t37 18t69 9q46 9 58 109t12 440v360q0 348 -3 416t-21 98q-18 29 -56 36q-37 7 -82 7q-45 1 -45 19z" />
<glyph unicode="L" horiz-adv-x="1239" d="M141 1524q0 18 45 18l156 -2q68 -4 125 -4t127 4l151 2q43 0 43 -18t-40 -18q-107 -1 -134 -42q-16 -36 -19 -102t-3 -414v-360q0 -232 7 -324t36 -117q51 -45 248 -45q94 0 149 10t94 53q39 42 50 118q4 31 22 30q16 0 16 -24q0 -25 -9 -107t-20 -129t-34 -56t-96 -9 l-596 12q-84 0 -117 -2l-141 -4q-41 0 -41 18t37 18t69 9q46 9 58 109t12 440v360q0 348 -3 416t-21 98q-18 29 -56 36q-37 7 -76 7q-39 1 -39 19z" />
<glyph unicode="M" horiz-adv-x="2136" d="M31 16q-1 14 31 14t63 7q64 17 84 162l203 1335q10 53 34 53t56 -63l559 -1155l557 1169q25 49 45 49q29 0 37 -63l186 -1266q16 -113 35 -147q35 -80 177 -80q50 0 48 -15q0 -22 -49 -22h-4q-254 0 -416 12q-59 6 -59 23q0 12 22 22q15 7 15 44q0 18 -4 44l-123 901h-8 l-447 -929q-35 -75 -48 -95t-29 -20t-70 102q-202 388 -226 442t-60 130t-70 150q-34 73 -93 198h-8l-107 -815q-6 -55 -6 -97q0 -75 148 -75q31 0 31 -15q0 -22 -46 -22h-4l-125 2q-53 4 -92 4t-88 -4l-112 -2q-37 0 -37 22z" />
<glyph unicode="N" horiz-adv-x="1939" d="M96 12q0 18 42 18t83 11q41 12 50 61t14 193l18 1212q0 70 27 70q8 0 21 -9t18 -16l18 -18q15 -14 153 -165t403 -416t403 -412q139 -148 145 -152h10l-20 920q-4 98 -19 129q-12 39 -47 53t-112 14q-33 1 -33 19t53 18l147 -2q58 -4 92 -4t80 4l130 2q47 0 47 -18 t-37 -18t-72 -10q-35 -9 -47 -46q-14 -31 -18 -125l-23 -1292q0 -64 -28 -64q-24 0 -68 45q-111 106 -301 299l-303 303q-200 200 -330 343t-143 157t-15 17h-6l23 -861q6 -205 71 -227q38 -14 90 -14q52 -1 52 -19t-48 -18l-161 2q-55 4 -93 4h-38q-36 -6 -174 -6 q-54 0 -54 18z" />
<glyph unicode="O" horiz-adv-x="1898" d="M113 750q1 122 27 228t93 224q66 104 160 187q95 82 239 132t326 50q380 0 604 -206t224 -563t-234 -597q-229 -240 -614 -240q-211 0 -377 75t-258 193q-92 113 -143 254q-47 141 -47 263zM395 831q0 -328 170 -546q172 -217 459 -217q45 0 106 10q45 12 123 53 q68 41 119 108t89 195t38 295q0 336 -170 540t-430 204q-98 0 -178 -31q-86 -29 -160 -99q-76 -63 -121 -197t-45 -315z" />
<glyph unicode="P" horiz-adv-x="1341" d="M129 1524q0 18 45 18l166 -2q72 -4 138 -4t136 4l152 2q254 0 381 -117q102 -98 102 -243q0 -220 -143 -358t-361 -138q-68 0 -67 21q0 22 52 22h5q94 0 187 96q88 98 88 242q0 199 -121 307q-90 80 -205 80q-56 0 -76 -7t-20 -40v-819q0 -340 9 -439t81 -110 q51 -8 94 -8q43 -1 43 -19t-39 -18l-190 2q-74 4 -126 4t-116 -4l-143 -2q-41 0 -41 18t37 18t69 9q46 9 58 109t12 440v360q0 348 -3 416t-21 98q-18 29 -56 36q-37 7 -82 7q-45 1 -45 19z" />
<glyph unicode="Q" horiz-adv-x="1904" d="M113 778q0 135 51 271t143 249q90 117 261 195t384 78q371 0 600 -210t230 -566q0 -127 -37 -242q-51 -179 -209 -340q-55 -55 -111 -92l412 -211q477 -244 844 -244q215 0 399 72l31 10q18 0 18 -17t-24 -26q-315 -154 -649 -154q-227 1 -416 63t-451 216l-321 188 q-144 -53 -320 -53q-345 0 -555 178q-86 76 -160 189q-120 217 -120 439v7zM398 820q0 -344 182 -548t442 -204q130 0 236 63q142 84 202 307q35 133 35 310t-53 313q-45 137 -135 233q-88 88 -189 131q-100 47 -213 48q-221 0 -364 -158q-143 -152 -143 -495z" />
<glyph unicode="R" horiz-adv-x="1546" d="M129 1524q0 18 45 18l166 -2q68 -4 128 -4t134 4l141 2q250 0 377 -88q48 -31 94 -110t46 -185q0 -232 -271 -444q352 -444 456 -551q129 -133 275 -133q25 -1 25 -19t-39 -18h-195q-149 0 -217 37t-132 109t-112 140t-60 84t-33 45q-20 28 -74 106q-54 77 -70 96t-41 20 l-178 4q-16 0 -16 -17v-28q0 -342 8 -418t24 -98q18 -43 158 -43q25 -1 25 -19t-41 -18l-183 2q-79 4 -121 4t-106 -4l-141 -2q-41 0 -41 18t37 18t69 9q46 9 58 109t12 440v360q0 348 -3 416t-21 98q-18 29 -56 36q-37 7 -82 7q-45 1 -45 19zM578 786q0 -29 18 -36 q58 -20 154 -20t147 34q121 90 121 297t-100 296t-198 89t-120 -7t-22 -30v-623z" />
<glyph unicode="S" horiz-adv-x="1191" d="M193 41q-8 13 -8 83q0 79 10 232q4 53 24 54q21 0 21 -37t18 -103q61 -207 293 -207q127 0 203 72q72 72 72 158t-41 163q-40 77 -160 169l-95 73q-166 131 -233 244q-70 109 -70 242q0 172 132 280q131 107 337 107h4q139 0 273 -35q29 -6 28 -25l-6 -120 q-2 -37 -2 -111t-22 -76q-20 0 -21 37q0 70 -53 135q-80 100 -210 100t-191 -59q-66 -55 -66 -139t46 -149t171 -158l58 -43q180 -135 258 -255t77 -267q0 -231 -192 -357q-134 -84 -318 -84t-307 53q-25 8 -30 23z" />
<glyph unicode="T" horiz-adv-x="1454" d="M29 1312q0 48 43 220q8 39 24 39q4 0 31 -10q67 -25 262 -25h811q90 0 130 8t46 9t10 2t7 1h4q16 0 16 -47t-4 -110l-2 -123q-2 -33 -19 -33t-22 41l-2 23q-10 109 -242 114l-258 6v-839q0 -340 10 -439t80 -110q50 -8 94 -8q44 -1 44 -19t-39 -18l-191 2q-76 4 -129 4 t-119 -4l-141 -2q-41 0 -41 18t37 18t70 9q49 9 59 109t10 440v839l-305 -8q-80 -2 -135 -14q-70 -23 -98 -117q-6 -25 -23 -24q-18 0 -18 48z" />
<glyph unicode="U" horiz-adv-x="1744" d="M41 1524q0 18 45 18l168 -2q70 -4 127 -4t121 4l135 2q45 0 45 -18t-28 -18q-95 -2 -122 -42q-16 -36 -19 -102t-3 -414v-286q0 -203 39 -326q101 -262 377 -262q172 0 282 110q74 74 99 193q20 133 20 315v256q0 348 -3 416t-21 98q-17 29 -55 36t-80 7q-42 1 -42 19 t42 18t65 -2h119q25 0 39 -4h14q37 0 96 4l137 2q43 0 43 -19q0 -17 -29 -17q-98 -2 -124 -42q-16 -36 -20 -102q-3 -53 -3 -286v-128v-219q0 -213 -39 -365t-155 -251q-172 -147 -426 -148q-299 0 -455 141q-182 164 -182 543v299q0 348 -3 418t-24 96q-22 43 -145 43 q-35 1 -35 19z" />
<glyph unicode="V" horiz-adv-x="1482" d="M-113 1524q0 18 54 18l161 -2q70 -4 126 -4t116 4l145 2q47 0 48 -18q0 -18 -31 -19q-64 0 -82 -14t-18 -46t47 -155l352 -930h8q6 14 48 122q41 108 67 172t91 226q65 161 109 271t76 192q31 82 31 113t-31 40t-72 9t-40 17q0 20 57 20l137 -2q49 -4 83 -4t81 4l106 2 q43 0 43 -19q0 -17 -47 -17q-48 0 -90 -30q-42 -28 -124 -217q-81 -189 -235 -531t-195 -441q-42 -98 -55 -128t-17 -42l-13 -25q-49 -113 -62 -120t-25 -7q-12 1 -25 21q-14 20 -47 104l-517 1251q-35 84 -65 109q-55 55 -170 55q-25 1 -25 19z" />
<glyph unicode="W" horiz-adv-x="2222" d="M-37 1525q0 17 55 17q56 0 93 -2l135 -4l123 4q33 2 90 2t57 -18t-37 -18t-51 -9q-22 -10 -22 -39q0 -28 56 -244t251 -821h6l397 1067q27 74 51 74q17 0 27 -19t20 -46t13 -31l426 -1030h6q27 94 272 917q21 63 21 121t-99 59q-35 0 -34 19q0 18 55 18t88 -2l117 -4 l63 4q44 2 94 2t50 -18t-51 -19t-68 -22q-19 -10 -32 -40t-17 -41q-18 -41 -28 -74t-77 -212q-67 -178 -352 -1055q-16 -53 -31 -77q-8 -18 -25 -18t-30 20q-12 23 -37 80l-426 1026h-4q-402 -1087 -461 -1125q-4 -2 -14 -2t-21 15q-12 24 -24 61l-434 1300q-39 119 -76 146 q-27 18 -71 18q-44 1 -44 20z" />
<glyph unicode="X" horiz-adv-x="1458" d="M-43 12q0 18 30 18q98 2 152 56q43 39 90 109l392 559l-353 583q-101 168 -256 168q-20 0 -20 21q0 16 41 16l70 -2h69q78 -4 144 -4t120 4l127 2q41 0 41 -18t-31 -19q-81 0 -79 -41q0 -25 16 -52t56 -100t75 -131t63 -110t70 -119q250 377 276 425t25 85q0 43 -100 43 q-25 1 -25 19t43 18l117 -2q49 -4 88 -4t88 4l113 2q37 0 37 -18t-32 -18q-92 -1 -138 -56q-33 -37 -86 -117l-336 -483q23 -35 208 -339t237 -376q75 -104 200 -104q27 -1 27 -19t-39 -18h-62q-160 0 -368 4q-70 2 -70 19t29 24q10 4 10 14q4 8 -6 33q-168 303 -324 557 l-303 -489q-30 -45 -30 -76v-5q3 -32 40 -40q33 -4 53 -4q20 -1 19 -19q0 -18 -41 -18h-41l-26 2l-155 4l-151 -4l-28 -2h-35q-31 0 -31 18z" />
<glyph unicode="Y" horiz-adv-x="1372" d="M-61 1542l61 -2h57q69 -4 125 -4t107 4l127 2q31 0 30 -18q0 -10 -37 -20t-37 -41q0 -18 14 -45q53 -105 359 -636q7 16 147 270t161 294q29 68 29 108t-44 49q-37 8 -37 21q0 18 35 18l99 -2q45 -4 96 -4l182 4l35 2q37 0 37 -18t-42 -18t-86 -23q-43 -22 -103 -93 t-214 -331q-156 -254 -186 -329t-31 -206v-168q0 -118 6 -212t84 -105q51 -8 93 -8q42 -1 43 -19q0 -18 -43 -18l-185 2q-74 4 -129 4t-119 -4l-137 -2q-45 0 -45 18t36 18t69 9q57 12 63 105t6 212v168q0 109 -47 215q-8 23 -166 279t-214 338t-112 116t-92 34 q-34 0 -34 17q0 19 39 19z" />
<glyph unicode="Z" horiz-adv-x="1454" d="M121 18q0 18 71 127q500 768 826 1282h-402q-219 0 -294 -43q-49 -26 -77 -72t-34 -85q-5 -39 -23 -39t-18 39t41 291q6 38 24 38h1q6 0 25 -5t56 -9q145 -6 377 -6h625q35 0 35 -16q0 -10 -17 -39q-188 -307 -882 -1368h503q264 0 322 112q25 45 34 89t23 42 q21 0 21 -82t-41 -231q-16 -53 -62 -53l-1099 10q-35 0 -35 18z" />
<glyph unicode="[" horiz-adv-x="737" d="M207 -217v1718q0 16 6 23q8 4 27 4h391q25 0 24 -19q0 -16 -34 -20q-162 -14 -222 -43q-14 -55 -14 -182v-1241q0 -135 14 -191q55 -27 219 -43q35 -4 35 -21t-24 -18h-389q-23 0 -28 5t-5 28z" />
<glyph unicode="\" horiz-adv-x="1110" d="M37 1499q-12 18 2 25l74 45q16 10 28 -10l934 -1516q14 -27 0 -35l-71 -47q-14 -8 -27 12z" />
<glyph unicode="]" horiz-adv-x="737" d="M82 -231q0 16 35 20q162 14 221 43q14 55 14 182v1241q0 135 -14 191q-55 27 -219 43q-35 4 -35 21t25 18h389q24 0 28 -5t4 -28v-1718q0 -16 -6 -23q-8 -4 -26 -4h-392q-25 0 -24 19z" />
<glyph unicode="^" horiz-adv-x="1124" d="M96 614l393 918h144l393 -918h-139l-326 762l-325 -762h-140z" />
<glyph unicode="_" horiz-adv-x="1024" d="M0 -154h1024v-102h-1024v102z" />
<glyph unicode="`" horiz-adv-x="1898" d="M594 1921q0 11 62 31t97 36q34 16 44 17l6 -2l4 -4l10 -21l12 -18q16 -20 96 -98t148 -121q8 -8 11 -9t8 -3q8 -10 8 -15q0 -14 -20 -14t-195 73q-174 73 -223 97q-68 27 -68 51z" />
<glyph unicode="a" horiz-adv-x="1294" d="M-113 14q0 16 17 16q18 0 30 3h27q57 8 88 43t62 110l471 1096q27 70 53 70q16 0 29 -13q16 -25 32 -61t180 -422q164 -385 271 -633q76 -170 153 -186q39 -6 66 -6q27 -1 27 -19t-111 -18q-112 0 -313 4q-53 4 -54 14q0 14 23 19q26 10 16 39l-139 350q-4 12 -18 12 h-424q-12 0 -17 -12l-96 -234q-27 -59 -27 -107t72 -48h27q27 0 26 -19q0 -18 -28 -18l-101 2q-49 4 -100 4h-39q-36 -6 -158 -6q-45 0 -45 20zM403 541q-1 -4 -1 -7q0 -6 8 -6h348q9 0 9 6q0 2 -1 5l-170 442q-6 16 -9 16t-9 -16z" />
<glyph unicode="b" horiz-adv-x="1310" d="M154 1311l243 -4l271 4q227 0 315 -97q66 -77 68 -163q0 -176 -203 -306q127 -39 229 -138q103 -99 103 -245t-122 -259q-121 -113 -354 -113h-4q-51 0 -143 6l-154 4h-43q-69 -6 -184 -6q-35 0 -35 18t34 18t58 7q45 10 53 84t9 379v307q0 332 -2 373q-1 41 -17 59 q-32 37 -133 37q-30 0 -30 17t41 18zM528 266q0 -90 13 -123q17 -69 180 -69q90 0 156 58q65 57 65 183q0 82 -40 167t-130 147q-59 45 -156 45h-77q-11 0 -11 -12v-396zM528 778q0 -16 19 -20t99 -4t120 30q82 63 82 172t-57 195q-61 80 -168 80q-53 0 -78 -4 q-17 -4 -17 -29v-420z" />
<glyph unicode="c" horiz-adv-x="1443" d="M98 674q0 115 49 244q45 129 162 233q211 184 572 184q162 0 243 -14t121 -20t73 -10q32 -5 32 -23q0 -10 -2 -17l-7 -80l-4 -104q-2 -47 -4 -87t-21 -40t-20 37q-2 96 -69 162q-109 102 -343 102t-345 -98q-166 -143 -166 -453q0 -145 53 -267q95 -218 317 -304 q92 -39 205 -39q112 0 182 16t123 74t61 106t25 48q19 0 19 -29t-14 -111t-23 -120q-10 -38 -49 -54q-93 -39 -326 -39q-393 1 -618 189t-226 514z" />
<glyph unicode="d" horiz-adv-x="1701" d="M154 1311l260 -4l293 4q398 0 566 -85q91 -46 159 -114q170 -170 170 -452t-197 -476q-77 -78 -229 -141t-375 -63l-398 20h-43q-69 -6 -184 -6q-35 0 -35 18t34 18t58 7q45 10 53 84t9 379v307q0 332 -2 373q-1 41 -17 59q-32 37 -133 37q-30 0 -30 17t41 18zM537 614 q0 -258 3 -354t21 -121q44 -69 231 -69h5q251 0 399 122q147 121 147 425q0 155 -49 267t-118 171q-188 166 -504 166h-13q-78 0 -99 -11q-22 -12 -22 -44t-1 -332v-220z" />
<glyph unicode="e" horiz-adv-x="1179" d="M154 1311l260 -4h491l76 10l29 8q12 0 12 -16l-2 -6v-9l-8 -37q0 -16 -4 -61v-6q-4 -12 -6 -54t-6 -63t-19 -20q-14 1 -14 31q0 65 -48 98q-19 14 -79 21t-287 7q-12 0 -12 -16v-430q0 -18 12 -19h71q201 0 252 5q60 6 78 26q6 6 14 12t13 11h2q14 1 14 -15t-11 -105 t-11 -135q1 -46 -17 -46t-18 13t-1 25t-2 23q-1 12 -3 16q-18 59 -101 68q-57 8 -282 8q-10 0 -10 -18v-397q4 -90 54 -118t177 -28t182 23q59 29 78 129q6 27 21 26q16 0 16 -41q0 -109 -25 -192q-8 -33 -24 -39t-144 -6t-260 6l-209 4h-43q-69 -6 -184 -6q-35 0 -35 18 t34 18t58 7q45 10 53 84t9 379v307q0 332 -2 373q-1 41 -17 59q-32 37 -133 37q-30 0 -30 17t41 18z" />
<glyph unicode="f" horiz-adv-x="1161" d="M156 1311l258 -4h512q29 2 73 8l29 10q12 0 12 -16l-14 -78l-8 -141q-4 -35 -19 -35q-23 1 -23 35t-9 59q-25 49 -115 53l-299 6q-16 0 -16 -24v-422q0 -16 12 -17l252 3q63 0 82 2q53 2 75 30q18 18 25 19q10 -1 10 -13t-2 -22t-5 -40t-8 -68t-5 -94q0 -58 -21 -58 q-16 0 -16 24t-12 54q-22 61 -88 65t-287 4q-12 0 -12 -14v-143q0 -262 8 -337t22 -91q21 -35 129 -35q42 0 41 -19q0 -18 -39 -18l-170 2q-70 4 -118 4t-107 -4l-123 -2q-37 0 -37 18t33 18t57 7q45 10 53 84t9 379v307q0 332 -2 369t-19 65q-35 35 -131 35q-30 0 -30 17 t43 18z" />
<glyph unicode="g" horiz-adv-x="1603" d="M98 637q0 217 90 358q199 340 705 340h6q186 0 320 -28q98 -17 133 -19t34 -20l-2 -4v-27l-8 -94l-2 -162q0 -39 -24 -39q-14 0 -19 23q-8 88 -59 141q-50 53 -154 94t-239 41q-51 0 -99 -3t-123 -30q-63 -18 -127 -69q-166 -135 -166 -423t173 -466q168 -182 454 -182 q84 0 123 17t39 62v160q0 170 -3 209t-17 58q-28 38 -129 38q-29 0 -29 18t39 17l276 -4l211 4q37 0 37 -17q0 -18 -20 -18t-52 -6q-66 -8 -69 -94q-2 -35 -2 -209v-192q0 -14 -2 -29v-16q-4 -6 -21 -17q-160 -78 -416 -78t-436 68q-182 69 -302 225t-120 373z" />
<glyph unicode="h" horiz-adv-x="1775" d="M152 1311l264 -4l239 4h4q33 0 33 -17q0 -18 -26 -18q-86 0 -105 -28q-18 -28 -21 -87t-3 -368v-37q0 -13 12 -13h680q10 0 10 13v37q0 236 -4 383q-2 45 -17 63q-31 37 -131 37q-31 0 -30 18q0 16 39 17l270 -4l231 4h4q35 0 35 -17q0 -18 -26 -18q-88 0 -107 -33 q-16 -23 -19 -82t-3 -354v-307q0 -306 7 -360t19 -77q22 -32 146 -32q28 0 28 -18v-1q0 -18 -36 -18l-168 2q-68 4 -116 4t-108 -4l-131 -2q-39 0 -39 18t35 18t60 7q45 10 53 84t8 375v133q0 10 -10 10h-680q-12 0 -12 -10v-133q0 -262 10 -369q6 -41 18 -64 q22 -32 144 -32q29 0 28 -19q0 -18 -37 -18l-172 2q-68 4 -116 4t-109 -4l-127 -2q-35 0 -35 18t34 18t58 7q45 10 53 84t9 379v307q0 332 -2 373q-1 41 -17 59q-32 37 -133 37q-30 0 -30 17t39 18z" />
<glyph unicode="i" horiz-adv-x="833" d="M137 1296q0 14 43 15l242 -4l231 4q37 0 37 -15q0 -20 -26 -20q-86 0 -103 -28q-18 -28 -21 -87t-3 -354v-307q0 -316 6 -368t20 -70q23 -30 146 -31q28 0 28 -18q0 -19 -35 -19l-170 2q-70 4 -118 4t-109 -4l-129 -2q-35 0 -35 18t34 18t58 7q43 8 53 78q9 64 9 330v55 v307q0 332 -3 373q-5 73 -61 88q-25 8 -59 8t-35 20z" />
<glyph unicode="j" horiz-adv-x="763" d="M35 -438q0 12 38 30t87 68q92 90 114 215q21 120 21 406v26v500q0 332 -2 373q-1 41 -17 59q-32 37 -133 37q-31 0 -30 18q0 16 41 17l272 -4l229 4h4q33 0 33 -17q0 -18 -26 -18q-86 0 -105 -28q-18 -28 -21 -87t-3 -354v-324q0 -61 4 -118l2 -127q0 -193 -43 -308 q-75 -216 -414 -376q-14 -8 -32 -8t-19 16z" />
<glyph unicode="k" horiz-adv-x="1402" d="M154 1311l252 -4l231 4h4q35 0 35 -17q0 -18 -20 -18q-84 0 -103 -28t-21 -68t-2 -373v-78h9q6 6 30 31l67 67q42 43 152 153q217 218 218 261q0 29 -25 35t-25 20t29 15l186 -4l211 4h3q28 0 28 -17q0 -18 -39 -18q-123 0 -282 -150q-309 -287 -381 -370 q47 -63 236 -260t251 -256q12 -8 47 -42q100 -99 199 -145q53 -22 105 -22h5q25 -1 25 -19t-43 -18h-158q-72 0 -132 5t-110 31t-110 76t-242 260q-184 210 -227 267l-18 24h-9v-157q0 -270 5 -373q6 -80 65 -90q37 -6 75 -6q38 -1 38 -19t-35 -18l-158 2q-68 4 -115 4 t-104 -4l-125 -2q-35 0 -35 18t34 18t58 7q45 10 53 84t9 379v307q0 332 -2 373q-1 41 -17 59q-32 37 -133 37q-30 0 -30 17t41 18z" />
<glyph unicode="l" horiz-adv-x="1130" d="M125 1293q0 17 39 18l248 -4l260 4h4q35 0 35 -17q0 -18 -36 -18q-96 0 -114 -28t-21 -87t-3 -354v-307q0 -193 6 -270t32 -97q43 -37 240 -37q92 0 137 9q101 20 119 145q2 27 21 26q16 0 16 -34t-9 -104t-17 -100t-27 -39q-18 -9 -147 -9t-265 6l-240 4h-43 q-69 -6 -184 -6q-35 0 -35 18t34 18t58 7q45 10 53 84t9 379v307q0 332 -2 373q-1 41 -17 59q-32 37 -120 37q-31 0 -31 17z" />
<glyph unicode="m" horiz-adv-x="1890" d="M50 30q23 0 61 5q55 6 73 133l178 1137q6 45 35 45t56 -56l483 -970l483 983q23 43 47 43q12 0 26 -16t15 -40l164 -1075q13 -86 31 -123t68 -51t86 -14t34 -17q0 -20 -47 -20q-158 0 -373 12q-53 4 -53 21q0 12 21 18q11 4 11 36q0 16 -3 38l-100 753h-7l-387 -778 q-29 -61 -43 -82q-16 -16 -28 -16q-27 0 -72 88q-178 332 -212 406t-175 362h-6l-86 -680q-6 -47 -6 -82q0 -59 118 -59q28 -1 29 -19q0 -18 -43 -18l-113 2q-45 4 -79 4t-80 -4l-97 -2q-32 0 -32 19q0 17 23 17z" />
<glyph unicode="n" horiz-adv-x="1722" d="M84 12q0 18 40 18t74 10q34 9 40 50q8 29 12 160l16 1032q0 59 31 59q20 0 78 -57l59 -59q20 -20 86 -89q67 -70 248 -247t305 -305q141 -141 164 -166l82 -80h8l-18 774q-5 80 -17 111t-44 42t-78 11t-46 17t45 18l230 -4l176 4q41 1 41 -17t-32 -18t-60 -7t-42 -36 q-13 -29 -18 -107l-20 -1097q0 -55 -29 -56q-37 0 -74 37q-183 170 -413 392t-280 275t-150 157t-105 108h-6l21 -711q2 -166 61 -188q37 -12 81 -12q44 -1 44 -19t-41 -18l-147 2q-53 4 -87 4h-34q-30 -6 -153 -6q-48 0 -48 18z" />
<glyph unicode="o" horiz-adv-x="1693" d="M98 653q0 208 111 369q55 88 143 158q80 68 212 112q129 43 283 43h7q338 0 538 -175t200 -479t-206 -507t-550 -203q-188 0 -336 62q-145 66 -230 164q-172 207 -172 456zM512 248q147 -182 397 -182q29 0 95 8q128 35 210 135q45 57 77 163t32 249q-1 285 -151 453 t-371 169q-166 0 -293 -104q-144 -129 -144 -415q0 -293 148 -476z" />
<glyph unicode="p" horiz-adv-x="1220" d="M154 1311l260 -4l299 4q221 0 336 -99q90 -86 90 -208q0 -180 -131 -304q-130 -118 -319 -118h-3q-47 0 -53 2q-23 0 -23 18q0 23 72 23t149 80q80 78 80 202q0 166 -106 258q-78 66 -180 66q-59 0 -75 -7t-18 -34v-690q0 -304 8 -360t20 -76q21 -33 142 -33 q29 -1 29 -19t-33 -18l-174 2q-72 4 -119 4t-104 -4l-125 -2q-35 0 -35 18t34 18t58 7q45 10 53 84t9 379v307q0 332 -2 373q-1 41 -17 59q-32 37 -133 37q-30 0 -30 17t41 18z" />
<glyph unicode="q" horiz-adv-x="1691" d="M98 655q0 246 174 449q90 106 236 166q143 65 332 65h6q328 0 534 -180q205 -179 205 -476q0 -208 -97 -352t-212 -223l354 -172q428 -206 734 -206h3q205 0 353 55q18 8 26 8q16 0 17 -16q0 -10 -23 -23q-289 -137 -577 -137q-211 0 -374 51t-390 184l-281 166 q-116 -43 -294 -43t-327 64t-232 167q-167 207 -167 453zM366 692q0 -289 156 -459q158 -167 385 -167q37 0 99 8q140 37 206 139q41 53 74 164q29 115 29 252q0 291 -153 453q-151 161 -350 161h-2q-200 0 -323 -129q-121 -133 -121 -422z" />
<glyph unicode="r" horiz-adv-x="1404" d="M154 1311l245 -4l281 4q229 0 342 -74q47 -35 88 -96q39 -68 39 -154t-58 -176t-192 -199q291 -360 403 -470t228 -111q22 0 22 -17v-2q0 -18 -34 -18h-172q-126 0 -192 33t-124 97t-227 298q-39 59 -70 100q-12 12 -33 13l-161 4q-14 0 -15 -15v-24q0 -268 8 -341 t21 -95q18 -33 132 -33h7q23 -1 23 -19t-37 -18l-170 2q-70 4 -111 4t-96 -4l-125 -2q-35 0 -35 18t34 18t58 7q45 10 53 84t9 379v307q0 332 -2 373q-1 41 -17 59q-32 37 -133 37q-30 0 -30 17t41 18zM524 672q0 -20 17 -31q55 -16 139 -16t125 28q117 84 117 254t-86 242 t-176 72t-119 -7q-17 -6 -17 -24v-518z" />
<glyph unicode="s" horiz-adv-x="1105" d="M162 96q0 52 10 211q0 45 23 45q18 0 18 -32t16 -87q29 -92 112 -132t187 -40t172 65q66 65 66 144t-33 135t-145 123l-105 62q-154 88 -218 181t-64 214q0 158 131 254t323 96q141 0 256 -28q25 -5 25 -21t-2 -33l-4 -178q0 -55 -23 -55q-18 0 -18 44t-47 101 q-68 82 -186 82t-190 -50q-71 -51 -71 -125t36 -124t155 -117l73 -40q170 -97 241 -197t71 -225q0 -201 -180 -326q-103 -72 -300 -72t-294 45q-19 8 -27 18t-8 62z" />
<glyph unicode="t" horiz-adv-x="1296" d="M25 1084q0 50 19 132t22 101q3 18 17 18h1q8 0 46 -14t212 -14h731q76 0 123 8l25 4q12 0 16 4h8q14 0 15 -37l-5 -211q-4 -29 -16 -28q-16 0 -21 47q-10 99 -214 106l-228 4v-704q0 -266 8 -341t22 -95q21 -32 142 -33q29 -1 29 -19t-35 -18l-172 2q-68 4 -117 4 t-108 -4l-129 -2q-35 0 -35 18t35 18t57 7q45 10 53 84t9 379v704l-269 -6q-141 -4 -174 -53q-23 -29 -30 -56t-21 -26q-16 1 -16 21z" />
<glyph unicode="u" horiz-adv-x="1556" d="M37 1293q0 17 39 18l270 -4l232 4q39 0 38 -17q0 -18 -23 -18q-86 0 -106 -33q-16 -23 -19 -82t-3 -354v-244q0 -182 33 -274q32 -92 112 -155q80 -62 222 -62t239 92q68 66 86 162t19 262v219q0 221 -5 369q-2 45 -18 63q-33 37 -123 37q-31 0 -31 17t37 18h115 q33 0 49 -4h51l211 4h4q33 0 33 -18q0 -17 -25 -17q-87 0 -106 -33q-16 -23 -18 -67q-4 -147 -4 -369v-186q0 -175 -34 -307t-138 -218q-150 -125 -381 -125q-279 0 -412 119q-164 142 -164 461v256q0 350 -2 382t-17 50q-31 37 -130 37q-31 0 -31 17z" />
<glyph unicode="v" horiz-adv-x="1304" d="M-98 1293q0 17 45 18l262 -4l229 4h4q39 0 39 -17q1 -18 -41 -18q-74 0 -75 -49q0 -25 41 -129l303 -781h6q368 855 368 920q0 39 -96 39q-31 0 -31 17t52 18l192 -4l170 4h4q33 0 33 -17q0 -18 -45 -18t-80 -27t-86 -147q-4 -4 -79 -171q-76 -167 -113 -246t-83 -184 t-85 -188q-38 -84 -80 -179t-63 -129t-39 -34h-2q-17 0 -30 19q-13 20 -42 86l-455 1065q-27 72 -55 92q-50 43 -148 43q-20 0 -20 17z" />
<glyph unicode="w" horiz-adv-x="1955" d="M8 1311h90q58 0 82 -4h72q20 4 80 4h94h4q35 0 35 -17q0 -18 -31 -18t-47 -8q-18 -6 -18 -46q1 -40 123 -434t137 -436h6l344 889q25 63 53 64q27 0 60 -82l360 -858h6q80 251 141 451q61 199 87 285t26 126q0 49 -88 49q-31 0 -31 17t43 18h84q54 0 74 -4h35l57 2 q39 2 82 2t43 -15v-1q0 -19 -31 -19q-32 0 -63 -11t-72 -120q0 -7 -14 -35l-8 -25q-57 -153 -214 -617t-169 -480t-30 -16t-30 14q-12 16 -34 69l-367 858h-4q-2 -6 -26 -65t-56 -139l-154 -381q-105 -269 -149 -340q-12 -16 -36 -16t-44 63l-381 1106q-37 106 -63 121 q-20 14 -60 14q-39 0 -39 16q0 18 41 19z" />
<glyph unicode="x" horiz-adv-x="1300" d="M-37 12q0 18 30 18q83 1 123 40t81 96l352 475l-318 496q-63 98 -145 127q-42 12 -68 12t-26 20q0 14 37 15l274 -4l203 4h4q33 0 33 -17q0 -18 -29 -18q-68 0 -68 -29t244 -432q178 258 244 363q20 33 20 63q0 35 -88 35q-23 0 -22 18q0 16 39 17l188 -4l176 4h3 q30 0 30 -17q0 -18 -24 -18q-81 0 -123 -43q-21 -26 -76 -100l-299 -408q10 -19 49 -77t71 -108t150 -233q119 -183 131 -196q61 -80 168 -80q23 -1 23 -19t-35 -18h-53q-137 0 -334 4q-63 2 -64 18q0 16 25 22t7 36q-18 29 -73 119q-56 90 -114 189q-58 98 -99 161 l-264 -410q-28 -48 -28 -73q0 -27 33 -27h3h19q8 -2 20 -2q23 0 23 -21q0 -16 -37 -16h-33l-74 2q-98 4 -118 4t-60 -4l-74 -2h-30q-27 0 -27 18z" />
<glyph unicode="y" horiz-adv-x="1208" d="M-57 1311l225 -4l205 4q27 0 26 -17q0 -12 -26 -18q-4 -4 -22 -7q-17 -3 -17 -21q0 -21 22 -62q54 -86 299 -510q2 4 128 220t147 258q22 45 22 73q0 38 -41 47q-33 8 -32 20q0 16 30 17l176 -4l193 4q33 0 33 -15q0 -20 -35 -20t-78 -20t-94 -82q-51 -61 -184 -277 q-139 -219 -164 -277t-25 -178v-139q0 -76 5 -167t73 -99q39 -6 80 -6q41 -1 41 -19t-39 -18l-166 2q-66 4 -116 4t-109 -4l-125 -2q-39 0 -39 18t34 18t58 7q49 8 55 87t6 179v143q0 94 -40 183q-13 27 -135 217t-190 286t-111 120q-44 24 -75 24q-30 0 -30 17t35 18z" />
<glyph unicode="z" horiz-adv-x="1280" d="M102 17q0 17 23 53q547 821 758 1134h-340q-199 0 -248 -26t-76 -66q-27 -39 -29 -72q-6 -31 -22 -30q-18 0 -18 44t36 236q2 33 21 33l26 -4q14 -4 46 -8q152 -4 331 -4h555q31 0 31 -15q0 -8 -10 -32q-307 -482 -774 -1156h432q225 0 278 91q23 43 31 75q9 33 25 33 t16 -69q0 -70 -35 -197q-14 -45 -55 -45l-971 8q-31 0 -31 17z" />
<glyph unicode="{" horiz-adv-x="737" d="M98 707q0 18 29 22h20l25 4q45 0 71 25t25 102l-20 223q0 147 34 223t97 138q94 84 223 84q41 0 41 -14t-47 -21q-47 -8 -98 -72q-55 -61 -56 -178v-252q-3 -63 -16 -115q-12 -53 -58 -99t-89 -58v-2q45 -14 94 -69t59 -136q4 -30 7 -40t3 -46v-176q0 -426 154 -459 q49 -13 49 -27q1 -14 -57 -14t-123 33q-136 84 -191 274q-27 106 -26 297l16 219q0 41 -20 69t-117 44l-16 4q-9 4 -11 5t-2 12z" />
<glyph unicode="|" horiz-adv-x="1024" d="M451 -512v2048h124v-2048h-124z" />
<glyph unicode="}" horiz-adv-x="737" d="M92 -236q0 14 49 27q154 33 154 459v156l6 77q0 25 6 37q0 12 11 51q12 39 54 85t87 61q-47 16 -90 61q-45 41 -58 95t-16 118v252q0 117 -55 178q-50 63 -98 71t-48 22q0 13 41 14q129 0 223 -84q64 -61 98 -137t33 -224l-20 -223q0 -78 26 -102t70 -25l25 -4h20 q29 -4 29 -22q0 -6 -4 -15q-4 0 -25 -6q-98 -16 -123 -51q-14 -20 -14 -62l16 -219q0 -190 -26 -297q-57 -194 -191 -274q-66 -33 -123 -33t-57 14z" />
<glyph unicode="~" horiz-adv-x="1124" d="M76 403q-2 147 61 223t176 74q59 0 117 -19t194 -85t205 -66q98 0 103 170h117q6 -154 -58 -229q-70 -70 -173 -70t-277 86t-238 86q-104 0 -110 -170h-117z" />
<glyph unicode="&#xa1;" horiz-adv-x="655" d="M182 -260q0 21 12 102q12 82 17 127q4 45 9 89t16 156q43 483 65 675q6 65 31 65t30 -73q43 -487 52 -557q18 -264 34 -329t21 -76q4 -11 4 -22t-10 -28q-66 -80 -184 -129q-43 -20 -78 -21q-19 0 -19 21zM229 1204q0 51 33 86q35 35 87 35t81 -35t29 -78t-29 -82 q-31 -36 -82 -36t-86 28q-33 31 -33 82z" />
<glyph unicode="&#xa2;" d="M125 778q0 134 50 230t110 147q164 139 422 139l22 205q2 18 21 21l65 8h19q6 -6 4 -12l-29 -222q129 0 270 -53q15 -6 15 -50t-13 -204q-4 -23 -20 -22q-14 0 -19 22q-6 80 -49 135q-61 76 -198 76l-93 -848q40 -8 114 -8t138 35q61 35 90 141q8 33 26 33t17 -25 q0 -90 -26 -223q-2 -25 -29 -35q-122 -35 -224 -35t-120 3l-29 -275q-2 -20 -16 -22l-76 -11q-23 -2 -18 13l37 307q-205 37 -336 174q-125 143 -125 356zM348 820q0 -172 83 -294t169 -153l92 825q-141 8 -242 -99q-102 -107 -102 -279z" />
<glyph unicode="&#xa3;" d="M-20 25q0 25 61 41q109 25 158 135q49 115 73 315l27 221h-145l-45 -4q-12 0 -7 25l21 59q2 14 31 14h157l17 109q55 367 223 504q88 76 169 102q80 26 188 25q108 0 182 -25q51 -10 55 -10q20 -2 20 -43q0 -147 -16 -242q-4 -29 -21 -28q-20 0 -20 32q-14 228 -238 228 q-113 0 -186 -94q-76 -88 -104 -279l-39 -276h258q31 0 45 2l45 6q23 0 14 -21l-24 -69q-7 -17 -52 -17h-299l-10 -92q-12 -105 -64 -243t-161 -228l4 -14l518 6q156 4 217 40t76 134q6 25 22 24q18 0 18 -26t-9 -143q-11 -95 -23 -141t-31 -56q-20 -6 -104 -6l-526 10h-414 q-61 0 -61 25z" />
<glyph unicode="&#xa4;" d="M133 1073l98 103l144 -158q94 82 235 82h2q141 0 236 -80l147 156l101 -103l-164 -147q70 -102 70 -247t-72 -245l157 -151l-100 -101l-141 162q-92 -86 -240 -86t-233 80l-140 -156l-96 101l152 145q-76 100 -76 244t78 254zM375 672q-1 -127 71 -199t161 -72t163 70 q70 72 70 199t-62 207q-66 80 -170 79h-2q-102 0 -166 -78t-65 -206z" />
<glyph unicode="&#xa5;" d="M-127 1522q0 20 35 20l59 -2h53q62 -4 110 -4t95 4l127 2q29 0 29 -18t-37 -24t-37 -38q-1 -18 17 -55t166 -308t165 -313q29 52 145 274t144 284q29 62 29 114q0 29 -42 39t-42 25q0 20 29 20l102 -2q41 -4 81 -4t97 4l109 2q33 0 32 -18q0 -20 -30 -21q-59 0 -95 -18 q-41 -16 -106 -103q-39 -49 -182 -310t-205 -388h330q18 0 16 -20l-14 -62q-4 -16 -27 -16h-313v-248q0 -162 2 -193q2 -92 94 -106q43 -6 87 -6q44 1 44 -19t-29 -20l-188 2q-72 4 -116 4t-115 -4l-185 -2q-31 0 -31 19t27 20q61 0 105 6q94 14 96 106q2 31 2 193v248h-332 q-16 0 -12 16l18 70q4 12 23 12h291q-23 45 -371 649q-61 109 -119 140t-94 31q-37 0 -37 18z" />
<glyph unicode="&#xa6;" horiz-adv-x="1024" d="M451 -358v716h124v-716h-124zM451 666v716h124v-716h-124z" />
<glyph unicode="&#xa7;" horiz-adv-x="1220" d="M147 619q-1 123 71 221t144 135q-115 121 -114 246q0 155 134 251t327 97q139 0 254 -29q25 -6 24 -22l-4 -103q-2 -31 -2 -96t-23 -66q-18 0 -18 44t-47 102q-63 82 -183 82t-196 -56q-76 -51 -76 -149q0 -61 37 -105q41 -43 158 -118l74 -47q195 -125 281 -230t87 -237 q0 -93 -58 -191t-149 -155q102 -131 103 -244q0 -195 -183 -318q-108 -71 -304 -71t-294 45q-20 8 -27 19q-7 12 -7 62t10 210q0 45 20 45t20 -33t17 -86q29 -92 112 -132t187 -40t174 63q74 61 74 147t-38 141q-38 54 -150 130l-105 72q-176 121 -253 207t-77 209zM322 707 q0 -80 46 -128t173 -133l110 -73q106 -70 146 -105q96 80 96 199q0 54 -33 113q-10 23 -41 47q-31 31 -83 67q-52 35 -99 70l-105 76q-59 40 -90 67q-121 -78 -120 -200z" />
<glyph unicode="&#xa8;" horiz-adv-x="1898" d="M639 1796q0 36 25 65q26 29 66 29t73 -22q27 -27 27 -67t-27 -72q-33 -29 -75 -29t-66 30t-23 66zM1071 1796q0 34 25 66q24 30 68 30t69 -24q29 -23 29 -67t-29 -72q-25 -29 -70 -29t-69 29q-23 33 -23 67z" />
<glyph unicode="&#xa9;" horiz-adv-x="1847" d="M113 762q1 338 237 574t581 235q345 0 572 -230q231 -229 231 -569t-236 -574t-580 -233q-344 -1 -574 229t-231 568zM244 776q0 -297 198 -506q203 -209 490 -209t477 205q195 201 195 497t-198 504t-488 208t-482 -201t-192 -498zM457 786q0 106 42 196t93 136 q129 117 360 117q106 1 178 -17t87 -18q25 -6 29 -6t9 2h11q2 0 2 -118t-27 -120q-16 0 -18 42t-39 85q-68 74 -216 74t-228 -87q-81 -87 -81 -238q-1 -195 107 -315t236 -120t182 54q27 27 45 100q8 25 21 25q28 0 -9 -183q-6 -35 -12 -43t-31 -14q-88 -25 -219 -25 q-236 0 -377 129q-145 125 -145 344z" />
<glyph unicode="&#xaa;" horiz-adv-x="870" d="M-10 850q0 14 14 14h14q6 2 27 3q38 2 76 75l285 606q18 39 33 39t32 -31q71 -162 141 -318t97 -215q27 -58 26 -60q45 -91 82 -95t43 -4q12 0 12 -14t-62 -14t-198 4q-31 0 -30 10q0 16 14 16t6 19l-67 157q-7 13 -15 13h-241q-8 0 -15 -13l-39 -104q-8 -22 -8 -48 t35 -26h14q16 0 17 -14q0 -14 -19 -14l-114 4l-142 -4q-18 0 -18 14zM299 1130q-4 -6 6 -6h191q4 0 4 6l-82 203q-8 27 -16 27t-17 -21z" />
<glyph unicode="&#xab;" horiz-adv-x="1126" d="M86 588q0 12 44 49t194 176q195 175 210 187q14 12 32 12t18 -16t-25 -42t-145 -172t-146 -184q59 -80 287 -293q29 -29 29 -33t-9 -12l-77 -88q-14 -14 -20 -14t-135 144t-193 209t-64 77zM489 588q1 12 23 32t217 193q180 167 202 183t32 16q25 0 24 -17 q-1 -13 -19 -33t-153 -180q-123 -154 -143 -184q59 -80 286 -293q29 -29 29 -33t-8 -12l-78 -88q-14 -14 -21 -14q-6 0 -134 144t-192 209t-65 77z" />
<glyph unicode="&#xac;" horiz-adv-x="1124" d="M82 649v125h960v-512h-131v387h-829z" />
<glyph unicode="&#xad;" horiz-adv-x="870" d="M74 477l30 141q4 20 14 24t36 3h581q66 0 66 -29q0 -20 -21 -26q-23 -10 -71 -19l-283 -47q-212 -39 -238 -48t-57 -22t-41 -14q-25 0 -16 37z" />
<glyph unicode="&#xae;" horiz-adv-x="421" d="M23 1390q0 75 52 127t136 52t136 -52t52 -127q0 -76 -52 -128t-136 -52t-136 52t-52 128zM61 1388q0 -66 41 -104q41 -39 109 -39q69 0 109 41q40 40 40 104t-40 104t-110 40t-109 -40q-40 -40 -40 -106zM104 1302q0 8 14 7q14 0 15 12v149q0 14 -24 15q-4 0 -5 6 q0 8 11 8h20q11 -2 23 -2t22 2h25q90 0 90 -55q0 -31 -43 -62l37 -43q29 -31 35 -31t6 -6q0 -7 -19 -8q-53 0 -80 39l-28 39h-25v-18q0 -39 3 -42t15 -3t13 -7q0 -7 -8 -8h-23q-8 2 -17 2t-18 -2h-24q-15 0 -15 8zM178 1399q10 -6 29 -6q36 0 37 39q0 18 -15 30 q-11 14 -29 14t-22 -3v-74z" />
<glyph unicode="&#xaf;" horiz-adv-x="1898" d="M676 1769l16 74q6 18 23 19h491q23 0 17 -21l-17 -74q-2 -12 -22 -12h-492q-4 0 -8 2h-6q-4 8 -2 12z" />
<glyph unicode="&#xb0;" horiz-adv-x="743" d="M106 1181q0 112 78 183q72 78 189 78h2q117 0 190 -74q72 -78 72 -186t-79 -186q-80 -76 -192 -76t-186 74t-74 187zM221 1180q0 -65 43 -115q46 -45 108 -45t107 45q43 49 43 116t-40 115t-111 47h-2q-70 0 -109 -49t-39 -114z" />
<glyph unicode="&#xb1;" horiz-adv-x="1124" d="M82 0v125h960v-125h-960zM82 649v125h414v418h131v-418h415v-125h-415v-416h-131v416h-414z" />
<glyph unicode="&#xb2;" horiz-adv-x="909" d="M82 641q0 8 24 33q231 190 347 334q106 139 106 286q0 104 -59 156q-53 51 -132 51q-80 0 -128 -48t-52 -114q0 -23 -18 -22q-12 0 -14 33q-8 0 -9 141q0 20 15 29q104 51 258 51t239 -72q86 -68 86 -170q0 -154 -102 -268q-88 -111 -344 -318q-4 -4 -2 -7t4 -3h59 q156 0 229 7t109 30q35 25 50 76q8 20 20 20t12 -32t-47 -175q-18 -34 -100 -34h-529q-23 0 -22 16z" />
<glyph unicode="&#xb3;" horiz-adv-x="866" d="M106 709q0 155 19 153q14 0 16 -20q18 -152 209 -152q86 0 148 50t65 150q1 100 -71 158t-136 63t-63 23q0 18 43 25q43 6 110 62q70 51 70 137q0 53 -41 100q-37 47 -117 47t-131 -38t-51 -93q0 -27 -12 -26q-12 0 -17 22q-12 74 -12 131q0 23 29 33q111 37 252 37 t207 -55q65 -55 65 -127t-65 -132q-66 -59 -131 -83v-5q82 -12 167 -73q82 -63 82 -162q0 -129 -120 -225q-122 -93 -312 -93q-135 0 -180 27q-18 10 -18 19q-4 6 -5 47z" />
<glyph unicode="&#xb4;" horiz-adv-x="1898" d="M811 1710q-1 10 27 37t154 125t160 120t48 24q14 0 27 -22q14 -22 61 -126q14 -31 -10 -31h-70q-141 -15 -385 -137q-12 0 -12 10z" />
<glyph unicode="&#xb6;" horiz-adv-x="1458" d="M102 1058q0 200 142 331q162 154 473 153l73 -2h66q82 -4 135 -4t137 4l181 2q33 0 32 -18q-1 -16 -25 -16q-73 -1 -104 -42q-16 -27 -19 -94t-3 -424v-805q0 -324 4 -401q0 -33 -58 -56q-58 -24 -74 -24q-15 0 -15 10v2l4 27l6 49q10 127 10 393v1241q0 80 -72 80 q-78 0 -84 -75q-2 -27 -2 -441v-796q0 -422 6 -488q5 -29 -56 -53q-97 -39 -97 -12l2 8q0 8 6 26q0 10 8 89t8 430v1230q0 46 -7 64t-34 18q-109 0 -179 -110t-68 -272q0 -162 37 -268t98 -144q21 -14 25 -16t8 -3q4 -2 7 -4t7 -4l2 -14q0 -25 -68 -25q-219 0 -366 125 q-146 129 -146 329z" />
<glyph unicode="&#xb7;" horiz-adv-x="512" d="M131 546q0 48 33 89q35 39 91 39t91 -34t35 -86t-34 -91t-93 -39t-90 39q-33 35 -33 83z" />
<glyph unicode="&#xb8;" horiz-adv-x="1898" d="M739 -504q-1 27 55 27t113 39t58 98q0 125 -162 150q-45 6 -45 14t33 33l192 143h117l-191 -141q113 -9 177 -53t64 -116t-88 -144q-89 -71 -288 -70q-35 0 -35 20z" />
<glyph unicode="&#xb9;" horiz-adv-x="696" d="M47 1329q1 14 15 23q14 8 33 20t37 22t70 45q54 33 110 65t67 42q43 25 57 25t15 -27l-7 -325v-226q0 -207 4 -246t17 -56q22 -32 139 -34q31 0 31 -18t-37 -18l-248 4l-248 -4q-37 0 -36 18q0 18 28 18q133 0 164 31q12 26 16 62t5 243v226q0 115 -3 131q-2 37 -24 36 q-16 0 -99 -36t-95 -35q-12 0 -11 14z" />
<glyph unicode="&#xba;" horiz-adv-x="966" d="M62 1197q0 146 106 261q108 113 312 113t315 -94t111 -260t-118 -277q-116 -111 -316 -111t-304 113q-106 109 -106 255zM246 1234q0 -140 78 -243q78 -98 186 -98q77 0 129 49q37 26 59 92t23 152q0 143 -76 232t-174 89t-164 -65q-61 -68 -61 -208z" />
<glyph unicode="&#xbb;" horiz-adv-x="1126" d="M139 173q0 15 24 41q25 26 147 173t145 184q-59 80 -287 293q-29 29 -29 33t8 12l78 88q14 14 21 15q8 0 65 -68q197 -222 261 -286t65 -76q-1 -12 -23 -32t-217 -194q-179 -168 -201 -184t-40 -14q-18 0 -17 15zM542 897q0 4 9 12l78 88q14 14 20 15q7 0 135 -144 t192 -210q64 -64 64 -76t-44 -49t-193 -177q-195 -174 -211 -186t-25 -12q-51 0 5 60q28 30 141 171q119 139 145 182q-59 80 -287 293q-29 29 -29 33z" />
<glyph unicode="&#xbc;" horiz-adv-x="1722" d="M47 1329q1 14 15 23q14 8 33 20t37 22t70 45q54 33 110 65t67 42q43 25 57 25t15 -27l-7 -325v-226q0 -207 4 -246t17 -56q22 -32 139 -34q31 0 31 -18t-37 -18l-248 4l-248 -4q-37 0 -36 18q0 18 28 18q133 0 164 31q12 26 16 62t5 243v226q0 115 -3 131q-2 37 -24 36 q-16 0 -99 -36t-95 -35q-12 0 -11 14zM272 12q-14 8 4 35l1098 1509q12 16 27 9l61 -41q10 -6 -2 -25l-1104 -1519q-16 -18 -24 -11zM809 272q-1 14 29 48t557 604q18 23 37 22q20 0 20 -20v-578h111q40 0 55 12h8l4 2q12 0 12 -14l-4 -16q0 -2 -10 -37l-8 -29 q-6 -16 -27 -16h-141q0 -137 3 -160t13 -36t54 -18t52 -5q8 1 9 -17q0 -18 -20 -18h-84q-65 0 -95 4h-69q-16 -4 -62 -4h-71q-16 0 -16 17t12 17t18 3l45 4q35 4 45 15t13 45t4 153h-465q-29 0 -29 22zM963 348h340v363h-9z" />
<glyph unicode="&#xbd;" horiz-adv-x="1892" d="M47 1329q1 14 15 23q14 8 33 20t37 22t70 45q54 33 110 65t67 42q43 25 57 25t15 -27l-7 -325v-226q0 -207 4 -246t17 -56q22 -32 139 -34q31 0 31 -18t-37 -18l-248 4l-248 -4q-37 0 -36 18q0 18 28 18q133 0 164 31q12 26 16 62t5 243v226q0 115 -3 131q-2 37 -24 36 q-16 0 -99 -36t-95 -35q-12 0 -11 14zM272 12q-14 8 4 35l1098 1509q12 16 27 9l61 -41q10 -6 -2 -25l-1104 -1519q-16 -18 -24 -11zM1065 16q0 8 25 33q242 199 346 336q106 133 106 285q0 104 -59 155q-53 51 -132 51t-137 -57q-39 -41 -43 -104q0 -23 -18 -23 q-12 0 -14 33q-8 0 -9 141q0 23 15 29q104 51 255 51t242 -69q86 -74 87 -172q1 -150 -99 -268t-348 -318q-4 -4 -4 -8h2q2 -2 4 -2h59q156 0 230 7t108 31q35 20 50 74q8 20 20 21q12 -2 12 -34t-47 -173q-18 -35 -100 -35h-529q-23 0 -22 16z" />
<glyph unicode="&#xbe;" horiz-adv-x="1806" d="M106 709q0 155 19 153q14 0 16 -20q18 -152 209 -152q86 0 148 50t65 150q1 100 -71 158t-136 63t-63 23q0 18 43 25q43 6 110 62q70 51 70 137q0 53 -41 100q-37 47 -117 47t-131 -38t-51 -93q0 -27 -12 -26q-12 0 -17 22q-12 74 -12 131q0 23 29 33q111 37 252 37 t207 -55q65 -55 65 -127t-65 -132q-66 -59 -131 -83v-5q82 -12 167 -73q82 -64 82 -162q0 -129 -120 -225q-121 -92 -312 -93q-135 0 -180 27q-18 10 -18 19q-4 6 -5 47zM354 12q-14 8 4 35l1098 1509q12 16 27 9l61 -41q10 -6 -2 -25l-1104 -1519q-16 -18 -24 -11zM891 272 q-1 14 29 48t557 604q18 23 36 22q20 0 21 -20v-578h111q40 0 55 12h8l4 2q12 0 12 -14l-4 -16q0 -2 -10 -37l-8 -29q-6 -16 -27 -16h-141q0 -137 3 -160t13 -36t54 -18t52 -5q8 1 9 -17q0 -18 -20 -18h-84q-67 0 -95 4h-69q-16 -4 -62 -4h-71q-16 0 -16 17t12 17t18 3l45 4 q35 4 45 15t13 45t3 153h-464q-29 0 -29 22zM1044 348h340v363h-8z" />
<glyph unicode="&#xbf;" horiz-adv-x="1089" d="M144 40q0 132 77 253q51 74 78 104q35 45 98 109q86 94 95 104q104 124 104 182t-33 103q-16 27 -16 37q1 16 21 16t107 -68t87 -120q0 -51 -41 -109q-10 -12 -71 -85q-137 -164 -206 -308q-38 -90 -38 -190t57 -183q63 -75 189 -75t192 79q66 88 71 170q5 41 19 41 t21 -30t8 -236q0 -16 -23 -33q-137 -82 -364 -82t-330 97q-102 92 -102 224zM489 1204q0 51 33 86q35 35 87 35t81 -35t29 -79t-30 -81q-30 -36 -81 -36t-86 28q-33 31 -33 82z" />
<glyph unicode="&#xc0;" horiz-adv-x="1433" d="M-131 12q-1 18 21 18t78 8q56 7 94 53t69 128l514 1286q27 55 35 69t22 13q23 0 52 -65q8 -16 208 -520t292 -722q92 -219 188 -241q35 -8 74 -8t38 -17q0 -20 -132 -20t-349 4q-61 2 -61 16t20 18t27 17q6 16 0 31l-164 434q-7 14 -21 14h-456q-12 0 -19 -16l-110 -293 q-31 -76 -31 -125q0 -63 82 -63h31q31 0 30 -17q0 -20 -34 -20l-109 2q-53 4 -108 4l-89 -4q-59 -2 -153 -2q-39 0 -39 18zM362 1921q0 11 62 31t97 36q34 16 44 17l4 -2h4q0 -4 5 -8l8 -17l12 -18q12 -16 102 -105t156 -122l8 -9q4 -8 4 -10q0 -14 -20 -14t-194 73t-224 97 q-68 27 -68 51zM451 645q-2 -14 8 -14h377q12 0 10 12l-184 506q-2 18 -10 18t-13 -18z" />
<glyph unicode="&#xc1;" horiz-adv-x="1433" d="M-131 12q-1 18 21 18t78 8q56 7 94 53t69 128l514 1286q27 55 35 69t22 13q23 0 52 -65q8 -16 208 -520t292 -722q92 -219 188 -241q35 -8 74 -8t38 -17q0 -20 -132 -20t-349 4q-61 2 -61 16t20 18t27 17q6 16 0 31l-164 434q-7 14 -21 14h-456q-12 0 -19 -16l-110 -293 q-31 -76 -31 -125q0 -63 82 -63h31q31 0 30 -17q0 -20 -34 -20l-109 2q-53 4 -108 4l-89 -4q-59 -2 -153 -2q-39 0 -39 18zM451 645q-2 -14 8 -14h377q12 0 10 12l-184 506q-2 18 -10 18t-13 -18zM580 1710q0 10 28 37t153 125q126 98 160 120t48 24q13 0 33 -34t55 -114 q16 -31 -10 -31h-70q-142 -15 -385 -137q-12 0 -12 10z" />
<glyph unicode="&#xc2;" horiz-adv-x="1433" d="M-131 12q-1 18 21 18t78 8q56 7 94 53t69 128l514 1286q27 55 35 69t22 13q23 0 52 -65q8 -16 208 -520t292 -722q92 -219 188 -241q35 -8 74 -8t38 -17q0 -20 -132 -20t-349 4q-61 2 -61 16t20 18t27 17q6 16 0 31l-164 434q-7 14 -21 14h-456q-12 0 -19 -16l-110 -293 q-31 -76 -31 -125q0 -63 82 -63h31q31 0 30 -17q0 -20 -34 -20l-109 2q-53 4 -108 4l-89 -4q-59 -2 -153 -2q-39 0 -39 18zM397 1700q0 8 19 31q28 29 96 91t134 124q67 62 77 63q10 0 43 -22q53 -45 244 -185q28 -22 28 -30t-10 -19l-59 -59q-15 -14 -25 -14t-33 22 q-38 48 -180 151q-16 13 -24 13t-33 -11q-118 -68 -182 -122t-79 -54t-16 21zM451 645q-2 -14 8 -14h377q12 0 10 12l-184 506q-2 18 -10 18t-13 -18z" />
<glyph unicode="&#xc3;" horiz-adv-x="1433" d="M-131 12q-1 18 21 18t78 8q56 7 94 53t69 128l514 1286q27 55 35 69t22 13q23 0 52 -65q8 -16 208 -520t292 -722q92 -219 188 -241q35 -8 74 -8t38 -17q0 -20 -132 -20t-349 4q-61 2 -61 16t20 18t27 17q6 16 0 31l-164 434q-7 14 -21 14h-456q-12 0 -19 -16l-110 -293 q-31 -76 -31 -125q0 -63 82 -63h31q31 0 30 -17q0 -20 -34 -20l-109 2q-53 4 -108 4l-89 -4q-59 -2 -153 -2q-39 0 -39 18zM360 1723q0 15 25 53t83 90t122 53q25 0 57 -6q14 -7 29 -10q23 -5 57 -31q16 -4 21 -10q78 -45 150 -45t122 61q20 27 34 27t15 -17q-1 -10 -19 -45 t-75 -90q-61 -53 -129 -53t-162 51t-156 51t-126 -73q-20 -21 -34 -21t-14 15zM451 645q-2 -14 8 -14h377q12 0 10 12l-184 506q-2 18 -10 18t-13 -18z" />
<glyph unicode="&#xc4;" horiz-adv-x="1433" d="M-131 12q-1 18 21 18t78 8q56 7 94 53t69 128l514 1286q27 55 35 69t22 13q23 0 52 -65q8 -16 208 -520t292 -722q92 -219 188 -241q35 -8 74 -8t38 -17q0 -20 -132 -20t-349 4q-61 2 -61 16t20 18t27 17q6 16 0 31l-164 434q-7 14 -21 14h-456q-12 0 -19 -16l-110 -293 q-31 -76 -31 -125q0 -63 82 -63h31q31 0 30 -17q0 -20 -34 -20l-109 2q-53 4 -108 4l-89 -4q-59 -2 -153 -2q-39 0 -39 18zM430 1729q-49 70 2 131q25 30 68 30q42 0 70 -22t28 -67q0 -44 -29 -72q-24 -29 -69 -29t-70 29zM451 645q-2 -14 8 -14h377q12 0 10 12l-184 506 q-2 18 -10 18t-13 -18zM863 1730q-51 64 1 132q25 30 67 30t73 -24q26 -27 26 -67t-26 -72q-33 -29 -75 -29t-66 30z" />
<glyph unicode="&#xc5;" horiz-adv-x="1433" d="M-131 12q-1 18 21 18t78 8q56 7 94 53t69 128l514 1286q27 55 35 69t22 13q23 0 52 -65q8 -16 208 -520t292 -722q92 -219 188 -241q35 -8 74 -8t38 -17q0 -20 -132 -20t-349 4q-61 2 -61 16t20 18t27 17q6 16 0 31l-164 434q-7 14 -21 14h-456q-12 0 -19 -16l-110 -293 q-31 -76 -31 -125q0 -63 82 -63h31q31 0 30 -17q0 -20 -34 -20l-109 2q-53 4 -108 4l-89 -4q-59 -2 -153 -2q-39 0 -39 18zM451 645q-2 -14 8 -14h377q12 0 10 12l-184 506q-2 18 -10 18t-13 -18zM481 1810q0 64 82 119q85 53 187 53t154 -34t52 -84q4 -82 -92 -131 q-88 -54 -184 -54t-148 34q-52 33 -51 97zM606 1831q0 -45 33 -73t78 -28t80 32t35 73t-28 69t-75 28t-86 -27q-37 -29 -37 -74z" />
<glyph unicode="&#xc6;" horiz-adv-x="1898" d="M-190 14q0 16 38 16q76 1 156 68q37 28 50 46t42 55t36 48q6 10 11 15q61 80 752 1161q39 68 45 90q6 29 27 29q8 0 14 -2h20q49 -4 347 -4t331 16q15 0 29 7q12 1 12 -13t-4 -22l-6 -45q-2 -27 -6 -72v-6q-4 -15 -6 -65t-5 -68t-21 -19q-18 0 -17 37q0 80 -51 115 q-26 16 -94 24t-296 9q-14 0 -14 -21v-584q0 -23 14 -22q266 0 335 5t91 30q20 26 34 26t14 -18l-9 -70q0 -8 -8 -80q0 -27 -2 -49l-6 -88q0 -39 -18 -39t-19 19q-6 70 -8 73q-14 70 -115 80q-68 8 -291 9q-12 0 -12 -21v-346q-2 -43 -2 -68q4 -108 48 -140t192 -32t198 25 q72 35 93 151q6 31 22 31t16 -37q0 -123 -26 -227q-9 -35 -27 -44t-84 -9l-567 12h-47q-75 -6 -191 -6q-39 0 -39 18t33 18t66 9q45 9 57 109t12 440v98q0 16 -18 16h-330q-27 0 -38 -18q-10 -18 -112 -196q-102 -176 -106 -181q-90 -152 -90 -201q0 -75 139 -75 q31 -1 31 -19t-39 -18l-178 2q-70 4 -113 4t-106 -4l-156 -2q-29 0 -28 20zM651 819q-8 -20 11 -20h274q18 0 18 16v496h-10q-23 -45 -88 -148q-57 -96 -105 -175q-47 -78 -63 -106t-25 -43z" />
<glyph unicode="&#xc7;" horiz-adv-x="1638" d="M113 765q-1 372 237 589t649 217q147 0 297 -21q37 -2 105 -18q79 -14 105 -17t26 -24l-6 -57q-10 -40 -10 -277q-4 -47 -24 -47t-22 45q-8 208 -245 279q-115 37 -250 36q-246 0 -385 -127q-188 -172 -189 -530q1 -176 61 -318q60 -143 158 -231t210 -134t235 -46 t211 24t144 88t71 138q2 12 8 33q6 8 19 8q18 0 18 -33t-16 -121q-12 -98 -26 -145t-56 -64q-123 -47 -369 -47q-22 0 -108 4l-148 -110q113 -9 177 -53t64 -116t-88 -144q-89 -71 -288 -70q-35 0 -35 20q0 27 55 27t113 39q57 39 57 98q0 125 -161 150q-45 6 -45 14t32 33 l164 123q-321 47 -514 229q-106 89 -168 241t-63 315z" />
<glyph unicode="&#xc8;" horiz-adv-x="1294" d="M129 1524q0 18 46 18t83 -2h82l129 -4q485 0 538 5t66 11q8 0 29 7q12 1 12 -13t-4 -22l-6 -45q-2 -27 -6 -72v-6q-4 -15 -6 -65t-5 -64q-4 -23 -21 -23t-17 37q0 80 -52 115q-27 16 -94 24t-295 9q-14 0 -14 -21v-518q0 -23 14 -23q266 0 335 6t91 29q20 27 34 27 t13 -16l-8 -70q0 -8 -8 -80q0 -27 -2 -49l-6 -88q-1 -39 -19 -39t-18 18q-6 70 -8 74q-14 70 -115 80q-57 6 -291 6q-12 0 -12 -20v-480q4 -109 49 -139q41 -33 189 -33t200 25q72 35 92 151q6 31 22 31t17 -37q0 -123 -26 -227q-9 -35 -27 -44t-84 -9l-567 12 q-84 0 -117 -2l-141 -4q-41 0 -41 18t37 18t69 9q46 9 58 109t12 440v360q0 348 -3 416t-21 98q-18 29 -56 36q-37 7 -82 7q-45 1 -45 19zM332 1921q0 11 62 31t96 36t45 17l6 -2l4 -4l10 -21l12 -18q16 -20 94 -97t150 -122q8 -8 11 -9t7 -3l5 -5q4 -8 4 -10q0 -14 -20 -14 t-195 73q-174 73 -224 97q-68 27 -67 51z" />
<glyph unicode="&#xc9;" horiz-adv-x="1294" d="M129 1524q0 18 46 18t83 -2h82l129 -4q485 0 538 5t66 11q8 0 29 7q12 1 12 -13t-4 -22l-6 -45q-2 -27 -6 -72v-6q-4 -15 -6 -65t-5 -64q-4 -23 -21 -23t-17 37q0 80 -52 115q-27 16 -94 24t-295 9q-14 0 -14 -21v-518q0 -23 14 -23q266 0 335 6t91 29q20 27 34 27 t13 -16l-8 -70q0 -8 -8 -80q0 -27 -2 -49l-6 -88q-1 -39 -19 -39t-18 18q-6 70 -8 74q-14 70 -115 80q-57 6 -291 6q-12 0 -12 -20v-480q4 -109 49 -139q41 -33 189 -33t200 25q72 35 92 151q6 31 22 31t17 -37q0 -123 -26 -227q-9 -35 -27 -44t-84 -9l-567 12 q-84 0 -117 -2l-141 -4q-41 0 -41 18t37 18t69 9q46 9 58 109t12 440v360q0 348 -3 416t-21 98q-18 29 -56 36q-37 7 -82 7q-45 1 -45 19zM528 1710q0 10 28 37t154 125t160 120t47 24q13 0 27 -22t62 -126q14 -31 -11 -31h-69q-141 -15 -385 -137q-13 0 -13 10z" />
<glyph unicode="&#xca;" horiz-adv-x="1294" d="M129 1524q0 18 46 18t83 -2h82l129 -4q485 0 538 5t66 11q8 0 29 7q12 1 12 -13t-4 -22l-6 -45q-2 -27 -6 -72v-6q-4 -15 -6 -65t-5 -64q-4 -23 -21 -23t-17 37q0 80 -52 115q-27 16 -94 24t-295 9q-14 0 -14 -21v-518q0 -23 14 -23q266 0 335 6t91 29q20 27 34 27 t13 -16l-8 -70q0 -8 -8 -80q0 -27 -2 -49l-6 -88q-1 -39 -19 -39t-18 18q-6 70 -8 74q-14 70 -115 80q-57 6 -291 6q-12 0 -12 -20v-480q4 -109 49 -139q41 -33 189 -33t200 25q72 35 92 151q6 31 22 31t17 -37q0 -123 -26 -227q-9 -35 -27 -44t-84 -9l-567 12 q-84 0 -117 -2l-141 -4q-41 0 -41 18t37 18t69 9q46 9 58 109t12 440v360q0 348 -3 416t-21 98q-18 29 -56 36q-37 7 -82 7q-45 1 -45 19zM367 1700q0 8 17 28t139 134q122 112 132 123q29 24 38 24t42 -22q53 -45 244 -185q29 -22 29 -30t-11 -19l-59 -59q-14 -14 -24 -14 t-33 22q-37 46 -181 151q-16 13 -24 13t-33 -11q-119 -68 -181 -122t-79 -54q-16 0 -16 21z" />
<glyph unicode="&#xcb;" horiz-adv-x="1294" d="M129 1524q0 18 46 18t83 -2h82l129 -4q485 0 538 5t66 11q8 0 29 7q12 1 12 -13t-4 -22l-6 -45q-2 -27 -6 -72v-6q-4 -15 -6 -65t-5 -64q-4 -23 -21 -23t-17 37q0 80 -52 115q-27 16 -94 24t-295 9q-14 0 -14 -21v-518q0 -23 14 -23q266 0 335 6t91 29q20 27 34 27 t13 -16l-8 -70q0 -8 -8 -80q0 -27 -2 -49l-6 -88q-1 -39 -19 -39t-18 18q-6 70 -8 74q-14 70 -115 80q-57 6 -291 6q-12 0 -12 -20v-480q4 -109 49 -139q41 -33 189 -33t200 25q72 35 92 151q6 31 22 31t17 -37q0 -123 -26 -227q-9 -35 -27 -44t-84 -9l-567 12 q-84 0 -117 -2l-141 -4q-41 0 -41 18t37 18t69 9q46 9 58 109t12 440v360q0 348 -3 416t-21 98q-18 29 -56 36q-37 7 -82 7q-45 1 -45 19zM376 1796q0 36 26 65q24 29 65 29t74 -22q27 -27 27 -67t-27 -72q-33 -29 -75 -29t-66 30t-24 66zM831 1729q-48 69 3 133 q24 30 68 30t69 -24q29 -23 29 -67q0 -45 -28 -73q-26 -28 -71 -28t-70 29z" />
<glyph unicode="&#xcc;" horiz-adv-x="925" d="M109 1921q0 11 62 31t96 36t44 17l4 -2h4q0 -4 5 -8l8 -17l12 -18q12 -16 102 -105t156 -122l8 -9q4 -8 4 -10q0 -14 -20 -14t-194 73t-224 97q-68 27 -67 51zM156 1526q0 16 49 16l139 -2q68 -4 124 -4t118 4l135 2q43 0 43 -18t-29 -18q-104 -2 -121 -42 q-16 -28 -20 -98t-4 -418v-360q0 -368 7 -432t24 -86q22 -39 163 -39q33 -1 33 -19t-39 -18l-188 2q-76 4 -129 4t-117 -4l-143 -2q-41 0 -41 18t37 18t69 9q50 11 60 105t10 444v360q0 348 -5 441t-69 108q-27 8 -67 8t-39 21z" />
<glyph unicode="&#xcd;" horiz-adv-x="925" d="M156 1526q0 16 49 16l139 -2q68 -4 124 -4t118 4l135 2q43 0 43 -18t-29 -18q-104 -2 -121 -42q-16 -28 -20 -98t-4 -418v-360q0 -368 7 -432t24 -86q22 -39 163 -39q33 -1 33 -19t-39 -18l-188 2q-76 4 -129 4t-117 -4l-143 -2q-41 0 -41 18t37 18t69 9q50 11 60 105 t10 444v360q0 348 -5 441t-69 108q-27 8 -67 8t-39 21zM326 1710q0 10 28 37t153 125q126 98 160 120t48 24q13 0 33 -34t55 -114q16 -31 -10 -31q-6 0 -13 2h-24q-140 0 -418 -139q-12 0 -12 10z" />
<glyph unicode="&#xce;" horiz-adv-x="925" d="M143 1700q0 8 19 31q28 29 96 91t134 124q67 62 77 63q10 0 43 -22q53 -45 244 -185q28 -22 28 -30t-10 -19l-59 -59q-15 -14 -25 -14t-33 22q-38 48 -180 151q-14 13 -23 13t-34 -11q-120 -68 -182 -122t-78 -54t-17 21zM156 1526q0 16 49 16l139 -2q68 -4 124 -4t118 4 l135 2q43 0 43 -18t-29 -18q-104 -2 -121 -42q-16 -28 -20 -98t-4 -418v-360q0 -368 7 -432t24 -86q22 -39 163 -39q33 -1 33 -19t-39 -18l-188 2q-76 4 -129 4t-117 -4l-143 -2q-41 0 -41 18t37 18t69 9q50 11 60 105t10 444v360q0 348 -5 441t-69 108q-27 8 -67 8t-39 21z " />
<glyph unicode="&#xcf;" horiz-adv-x="925" d="M156 1526q0 16 49 16l139 -2q68 -4 124 -4t118 4l135 2q43 0 43 -18t-29 -18q-104 -2 -121 -42q-16 -28 -20 -98t-4 -418v-360q0 -368 7 -432t24 -86q22 -39 163 -39q33 -1 33 -19t-39 -18l-188 2q-76 4 -129 4t-117 -4l-143 -2q-41 0 -41 18t37 18t69 9q50 11 60 105 t10 444v360q0 348 -5 441t-69 108q-27 8 -67 8t-39 21zM176 1729q-49 70 2 131q25 30 68 30q42 0 70 -22t28 -67q0 -44 -29 -72q-24 -29 -69 -29t-70 29zM609 1730q-51 64 1 132q25 30 67 30t73 -24q26 -27 26 -67t-26 -72q-33 -29 -75 -29t-66 30z" />
<glyph unicode="&#xd0;" horiz-adv-x="1916" d="M119 748l10 61q2 20 27 20h180v119q0 348 -3 416t-21 98q-18 29 -56 36q-37 7 -82 7q-45 1 -45 19t45 18l166 -2q72 -4 131 -4t133 4l180 2q109 0 195 -3t219 -25t227 -72q98 -47 181 -133q198 -205 198 -536t-221 -560q-82 -86 -262 -162t-393 -76q-78 1 -260 13 t-238 12t-88 -2l-141 -4q-41 0 -41 18t37 18t69 9q46 9 58 109t12 440v135h-207q-14 0 -10 25zM592 627q0 -429 26 -471q59 -84 269 -84q309 0 476 150t167 490t-205 538q-205 196 -573 196q-106 0 -134 -14q-26 -10 -26 -49v-402v-150h409q18 0 15 -24l-12 -68 q-4 -18 -25 -18h-387v-94z" />
<glyph unicode="&#xd1;" horiz-adv-x="1939" d="M96 12q0 18 42 18t83 11q41 12 50 61t14 193l18 1212q0 70 27 70q8 0 21 -9t18 -16l18 -18q15 -14 153 -165t403 -416t403 -412q139 -148 145 -152h10l-20 920q-4 98 -19 129q-12 39 -47 53t-112 14q-33 1 -33 19t53 18l147 -2q58 -4 92 -4t80 4l130 2q47 0 47 -18 t-37 -18t-72 -10q-35 -9 -47 -46q-14 -31 -18 -125l-23 -1292q0 -117 -96 -19q-111 106 -301 299l-303 303q-200 200 -330 343t-143 157t-15 17h-6l23 -861q6 -205 71 -227q38 -14 90 -14q52 -1 52 -19t-48 -18l-161 2q-55 4 -93 4h-38q-36 -6 -174 -6q-54 0 -54 18z M633 1723q1 15 25 53t82 90t122 53q30 0 50 -6t30 -8l25 -9q12 -6 18 -12q5 0 21 -9t20 -13q78 -45 151 -45t121 61q20 27 34 27q14 1 16 -13q0 -14 -19 -49t-76 -90q-59 -53 -127 -53t-164 51q-94 51 -156 51t-126 -73q-20 -20 -33 -21q-14 0 -14 15z" />
<glyph unicode="&#xd2;" horiz-adv-x="1898" d="M113 750q1 122 27 228t93 224q66 104 160 187q95 82 239 132t326 50q380 0 604 -206t224 -563t-234 -597q-229 -240 -614 -240q-211 0 -377 75t-258 193q-92 113 -143 254q-47 141 -47 263zM395 831q0 -328 170 -546q172 -217 459 -217q45 0 106 10q45 12 123 53 q68 41 119 108t89 195t38 295q0 336 -170 540t-430 204q-98 0 -178 -31q-86 -29 -160 -99q-76 -63 -121 -197t-45 -315zM594 1921q0 11 62 31t97 36q34 16 44 17l6 -2l4 -4l10 -21l12 -18q16 -20 96 -98t148 -121q8 -8 11 -9t8 -3q8 -10 8 -15q0 -14 -20 -14t-195 73 q-174 73 -223 97q-68 27 -68 51z" />
<glyph unicode="&#xd3;" horiz-adv-x="1898" d="M113 750q1 122 27 228t93 224q66 104 160 187q95 82 239 132t326 50q380 0 604 -206t224 -563t-234 -597q-229 -240 -614 -240q-211 0 -377 75t-258 193q-92 113 -143 254q-47 141 -47 263zM395 831q0 -328 170 -546q172 -217 459 -217q45 0 106 10q45 12 123 53 q68 41 119 108t89 195t38 295q0 336 -170 540t-430 204q-98 0 -178 -31q-86 -29 -160 -99q-76 -63 -121 -197t-45 -315zM811 1710q-1 10 27 37t154 125t160 120t48 24q14 0 27 -22q14 -22 61 -126q14 -31 -10 -31h-70q-141 -15 -385 -137q-12 0 -12 10z" />
<glyph unicode="&#xd4;" horiz-adv-x="1898" d="M113 750q1 122 27 228t93 224q66 104 160 187q95 82 239 132t326 50q380 0 604 -206t224 -563t-234 -597q-229 -240 -614 -240q-211 0 -377 75t-258 193q-92 113 -143 254q-47 141 -47 263zM395 831q0 -328 170 -546q172 -217 459 -217q45 0 106 10q45 12 123 53 q68 41 119 108t89 195t38 295q0 336 -170 540t-430 204q-98 0 -178 -31q-86 -29 -160 -99q-76 -63 -121 -197t-45 -315zM629 1700q0 8 17 28t139 134q122 112 142 130t29 17q9 0 41 -22q53 -45 244 -185q29 -22 29 -30t-10 -19l-60 -59q-14 -14 -24 -14t-33 22 q-38 48 -180 151q-17 13 -25 13t-33 -11q-119 -68 -183 -122t-78 -54q-15 0 -15 21z" />
<glyph unicode="&#xd5;" horiz-adv-x="1898" d="M113 750q1 122 27 228t93 224q66 104 160 187q95 82 239 132t326 50q380 0 604 -206t224 -563t-234 -597q-229 -240 -614 -240q-211 0 -377 75t-258 193q-92 113 -143 254q-47 141 -47 263zM395 831q0 -328 170 -546q172 -217 459 -217q45 0 106 10q45 12 123 53 q68 41 119 108t89 195t38 295q0 336 -170 540t-430 204q-98 0 -178 -31q-86 -29 -160 -99q-76 -63 -121 -197t-45 -315zM592 1723q0 15 24 53t83 90q58 52 122 53q33 0 51 -6q19 -6 35 -7t37 -22q4 0 20 -9t21 -13q78 -45 151 -45t121 61q21 27 35 27q14 1 14 -13t-18 -49 q-19 -35 -76 -90q-60 -53 -128 -53t-162 51t-156 51t-127 -73q-20 -20 -33 -21q-14 0 -14 15z" />
<glyph unicode="&#xd6;" horiz-adv-x="1898" d="M113 750q1 122 27 228t93 224q66 104 160 187q95 82 239 132t326 50q380 0 604 -206t224 -563t-234 -597q-229 -240 -614 -240q-211 0 -377 75t-258 193q-92 113 -143 254q-47 141 -47 263zM395 831q0 -328 170 -546q172 -217 459 -217q45 0 106 10q45 12 123 53 q68 41 119 108t89 195t38 295q0 336 -170 540t-430 204q-98 0 -178 -31q-86 -29 -160 -99q-76 -63 -121 -197t-45 -315zM639 1796q0 36 25 65q26 29 66 29t73 -22q27 -27 27 -67t-27 -72q-33 -29 -75 -29t-66 30t-23 66zM1071 1796q0 34 25 66q24 30 68 30t69 -24 q29 -23 29 -67t-29 -72q-25 -29 -70 -29t-69 29q-23 33 -23 67z" />
<glyph unicode="&#xd7;" horiz-adv-x="1124" d="M111 137l368 379l-368 379l84 84l368 -379l369 379l84 -84l-369 -379l369 -379l-84 -84l-369 377l-368 -377z" />
<glyph unicode="&#xd8;" horiz-adv-x="1898" d="M113 744q1 128 27 234t93 224q66 104 160 187q95 82 239 132t326 50q322 0 533 -150l154 162q10 10 28 -4l58 -49q10 -10 0 -23l-152 -159q207 -203 207 -553t-234 -590q-229 -240 -614 -240q-311 0 -520 160l-172 -180q-10 -10 -21 0l-57 51q-12 12 -4 20l172 183 q-113 113 -168 265t-55 280zM397 829q1 -264 107 -452l833 880q-170 213 -436 213q-90 0 -180 -28q-80 -31 -160 -99q-164 -156 -164 -514zM567 283q174 -217 459 -217q55 0 104 12q51 8 121 48t122 109t90 195t38 297q0 244 -100 432z" />
<glyph unicode="&#xd9;" horiz-adv-x="1744" d="M41 1524q0 18 45 18l168 -2q70 -4 127 -4t121 4l135 2q45 0 45 -18t-28 -18q-95 -2 -122 -42q-16 -36 -19 -102t-3 -414v-286q0 -203 39 -326q101 -262 377 -262q172 0 282 110q74 74 99 193q20 133 20 315v256q0 348 -3 416t-21 98q-17 29 -55 36t-80 7q-42 1 -42 19 t42 18t65 -2h119q25 0 39 -4h14q37 0 96 4l137 2q43 0 43 -18q1 -18 -29 -18q-98 -2 -124 -42q-16 -36 -20 -102t-3 -414v-219q0 -213 -39 -365t-155 -251q-172 -147 -426 -148q-299 0 -455 141q-182 164 -182 543v299q0 348 -3 418t-24 96q-22 43 -145 43q-35 1 -35 19z M526 1921q0 11 62 31t97 36q34 16 44 17l4 -2h4q0 -4 4 -8l9 -17l12 -18q12 -16 102 -105t156 -122l8 -9q4 -8 4 -10q0 -14 -20 -14t-194 73t-224 97q-68 27 -68 51z" />
<glyph unicode="&#xda;" horiz-adv-x="1744" d="M41 1524q0 18 45 18l168 -2q70 -4 127 -4t121 4l135 2q45 0 45 -18t-28 -18q-95 -2 -122 -42q-16 -36 -19 -102t-3 -414v-286q0 -203 39 -326q101 -262 377 -262q172 0 282 110q74 74 99 193q20 133 20 315v256q0 348 -3 416t-21 98q-17 29 -55 36t-80 7q-42 1 -42 19 t42 18t65 -2h119q25 0 39 -4h14q37 0 96 4l137 2q43 0 43 -18q1 -18 -29 -18q-98 -2 -124 -42q-16 -36 -20 -102t-3 -414v-219q0 -213 -39 -365t-155 -251q-172 -147 -426 -148q-299 0 -455 141q-182 164 -182 543v299q0 348 -3 418t-24 96q-22 43 -145 43q-35 1 -35 19z M774 1710q0 10 28 37t154 125t160 120t46 24q14 0 28 -22t61 -126q14 -31 -10 -31h-70q-77 -8 -183 -48t-150 -63t-52 -26q-12 0 -12 10z" />
<glyph unicode="&#xdb;" horiz-adv-x="1744" d="M41 1524q0 18 45 18l168 -2q70 -4 127 -4t121 4l135 2q45 0 45 -18t-28 -18q-95 -2 -122 -42q-16 -36 -19 -102t-3 -414v-286q0 -203 39 -326q101 -262 377 -262q172 0 282 110q74 74 99 193q20 133 20 315v256q0 348 -3 416t-21 98q-17 29 -55 36t-80 7q-42 1 -42 19 t42 18t65 -2h119q25 0 39 -4h14q37 0 96 4l137 2q43 0 43 -18q1 -18 -29 -18q-98 -2 -124 -42q-16 -36 -20 -102t-3 -414v-219q0 -213 -39 -365t-155 -251q-172 -147 -426 -148q-299 0 -455 141q-182 164 -182 543v299q0 348 -3 418t-24 96q-22 43 -145 43q-35 1 -35 19z M582 1700q0 8 18 31q28 29 96 91t101 93t50 47t33 32t27 15q10 0 43 -22q53 -45 244 -185q29 -22 29 -30t-11 -19l-59 -59q-15 -14 -25 -14t-32 22q-20 25 -106 94t-97 69q-10 1 -35 -10q-118 -68 -182 -122t-79 -54t-15 21z" />
<glyph unicode="&#xdc;" horiz-adv-x="1744" d="M41 1524q0 18 45 18l168 -2q70 -4 127 -4t121 4l135 2q45 0 45 -18t-28 -18q-95 -2 -122 -42q-16 -36 -19 -102t-3 -414v-286q0 -203 39 -326q101 -262 377 -262q172 0 282 110q74 74 99 193q20 133 20 315v256q0 348 -3 416t-21 98q-17 29 -55 36t-80 7q-42 1 -42 19 t42 18t65 -2h119q25 0 39 -4h14q37 0 96 4l137 2q43 0 43 -18q1 -18 -29 -18q-98 -2 -124 -42q-16 -36 -20 -102t-3 -414v-219q0 -213 -39 -365t-155 -251q-172 -147 -426 -148q-299 0 -455 141q-182 164 -182 543v299q0 348 -3 418t-24 96q-22 43 -145 43q-35 1 -35 19z M602 1796q0 36 25 65t65 29t74 -22q27 -27 27 -67t-27 -72q-33 -29 -75 -29q-41 0 -65 30t-24 66zM1034 1796q0 34 25 66q25 30 69 30t68 -24q29 -23 29 -67t-29 -72q-25 -29 -70 -29t-69 29q-23 33 -23 67z" />
<glyph unicode="&#xdd;" horiz-adv-x="1372" d="M-100 1524q0 18 39 18l61 -2h57q69 -4 125 -4t107 4l127 2q31 0 30 -18q0 -10 -37 -20q-59 -16 -23 -86q53 -105 359 -636q7 16 147 270t161 294q29 68 29 108t-44 49q-37 8 -37 21q0 18 35 18l99 -2q45 -4 96 -4l182 4l35 2q37 0 37 -18t-42 -18t-86 -23 q-43 -22 -103 -93t-214 -331q-156 -254 -186 -329t-31 -206v-168q0 -118 6 -212t84 -105q51 -8 93 -8q42 -1 43 -19q0 -18 -43 -18l-185 2q-74 4 -129 4t-119 -4l-137 -2q-45 0 -45 18t36 18t69 9q57 12 63 105t6 212v168q0 109 -47 215q-8 23 -166 279t-214 338t-112 116 t-92 34q-35 0 -34 18zM608 1710q0 10 28 37t154 125t160 120t48 24q24 1 87 -148q16 -31 -10 -31h-69q-142 -15 -385 -137q-13 0 -13 10z" />
<glyph unicode="&#xde;" horiz-adv-x="1341" d="M129 1524q0 18 45 18l166 -2q72 -4 126 -4t124 4l164 2q39 0 39 -18t-29 -18t-80 -9q-88 -14 -92 -108l-4 -185q109 8 180 8q248 0 381 -116q37 -31 69 -100t31 -142q0 -217 -142 -352t-362 -135q-37 0 -43 2q-25 0 -24 18q0 23 57 23q96 0 183 96q86 96 86 233 q0 201 -115 316q-72 72 -197 71q-60 0 -82 -9t-22 -42v-487q0 -340 9 -439t81 -110q51 -8 89 -8q38 -1 38 -19t-41 -18l-178 2q-72 4 -125 4t-117 -4l-143 -2q-41 0 -41 18t37 18t69 9q46 9 58 109t12 440v360q0 348 -3 416t-21 98q-18 29 -56 36q-37 7 -82 7q-45 1 -45 19z " />
<glyph unicode="&#xdf;" horiz-adv-x="2211" d="M162 96q0 52 10 211q0 45 23 45q18 0 18 -32t16 -87q29 -92 112 -132t187 -40t172 65q66 65 66 144t-33 135t-145 123l-105 62q-154 88 -218 181t-64 214q0 158 131 254t323 96q141 0 256 -28q25 -5 25 -21t-2 -33l-4 -178q0 -55 -23 -55q-18 0 -18 44t-47 101 q-68 82 -186 82t-190 -50q-71 -51 -71 -125t36 -124t155 -117l73 -40q170 -97 241 -197t71 -225q0 -201 -180 -326q-103 -72 -300 -72t-294 45q-19 8 -27 18t-8 62zM1268 96q0 52 10 211q0 45 20 45t20 -32t17 -87q29 -92 112 -132t187 -40t172 65q66 65 66 144t-33 135 t-145 123l-105 62q-154 88 -218 181t-64 214q0 158 131 254t323 96q141 0 256 -28q25 -5 25 -21t-2 -33l-4 -178q0 -55 -23 -55q-18 0 -18 44t-47 101q-68 82 -186 82t-190 -50q-71 -51 -71 -125t36 -124t155 -117l73 -40q170 -97 241 -197t71 -225q0 -201 -181 -326 q-102 -72 -299 -72t-294 45q-19 8 -27 18t-8 62z" />
<glyph unicode="&#xe0;" horiz-adv-x="1294" d="M-113 12q-1 18 17 18t30 3h27q57 8 88 43t62 110l471 1096q27 70 53 70q16 0 29 -13q16 -25 32 -61t180 -422q164 -385 271 -633q76 -170 153 -186q39 -6 66 -6q27 -1 27 -19q1 -18 -111 -18t-313 4q-53 4 -54 14q0 14 23 19q26 10 16 39l-139 350q-4 12 -18 12h-424 q-12 0 -17 -12l-96 -234q-27 -59 -27 -107t72 -48h27q27 0 26 -19q0 -18 -28 -18l-101 2q-49 4 -100 4h-39q-36 -6 -158 -6q-45 0 -45 18zM293 1692q0 12 62 32q63 20 97 35q34 16 44 17l4 -2h4q0 -4 4 -9l8 -16l12 -18q12 -17 85 -89t143 -120l14 -11l16 -8l9 -8 q4 -8 4 -10q-1 -15 -21 -15t-194 73t-224 97q-68 27 -67 52zM403 541q-5 -13 7 -13h348q12 0 8 11l-170 442q-6 16 -9 16t-9 -16z" />
<glyph unicode="&#xe1;" horiz-adv-x="1294" d="M-113 12q-1 18 17 18t30 3h27q57 8 88 43t62 110l471 1096q27 70 53 70q16 0 29 -13q16 -25 32 -61t180 -422q164 -385 271 -633q76 -170 153 -186q39 -6 66 -6q27 -1 27 -19q1 -18 -111 -18t-313 4q-53 4 -54 14q0 14 23 19q26 10 16 39l-139 350q-4 12 -18 12h-424 q-12 0 -17 -12l-96 -234q-27 -59 -27 -107t72 -48h27q27 0 26 -19q0 -18 -28 -18l-101 2q-49 4 -100 4h-39q-36 -6 -158 -6q-45 0 -45 18zM403 541q-5 -13 7 -13h348q12 0 8 11l-170 442q-6 16 -9 16t-9 -16zM510 1480q0 10 28 38q28 26 154 124t160 121t48 23q24 1 87 -148 q16 -31 -10 -30q-6 0 -12 2h-25q-79 0 -203 -46q-123 -46 -157 -64l-58 -30q-12 0 -12 10z" />
<glyph unicode="&#xe2;" horiz-adv-x="1294" d="M-113 12q-1 18 17 18t30 3h27q57 8 88 43t62 110l471 1096q27 70 53 70q16 0 29 -13q16 -25 32 -61t180 -422q164 -385 271 -633q76 -170 153 -186q39 -6 66 -6q27 -1 27 -19q1 -18 -111 -18t-313 4q-53 4 -54 14q0 14 23 19q26 10 16 39l-139 350q-4 12 -18 12h-424 q-12 0 -17 -12l-96 -234q-27 -59 -27 -107t72 -48h27q27 0 26 -19q0 -18 -28 -18l-101 2q-49 4 -100 4h-39q-36 -6 -158 -6q-45 0 -45 18zM328 1470q0 8 18 31q28 29 96 91t101 94q33 31 50 47q17 15 33 31t27 16q10 0 43 -23q53 -45 244 -184q29 -23 29 -31t-11 -18 l-59 -60q-15 -14 -25 -14t-32 23q-25 31 -109 97q-85 66 -95 66t-34 -10q-120 -68 -182 -122t-78 -54t-16 20zM403 541q-5 -13 7 -13h348q12 0 8 11l-170 442q-6 16 -9 16t-9 -16z" />
<glyph unicode="&#xe3;" horiz-adv-x="1294" d="M-113 12q-1 18 17 18t30 3h27q57 8 88 43t62 110l471 1096q27 70 53 70q16 0 29 -13q16 -25 32 -61t180 -422q164 -385 271 -633q76 -170 153 -186q39 -6 66 -6q27 -1 27 -19q1 -18 -111 -18t-313 4q-53 4 -54 14q0 14 23 19q26 10 16 39l-139 350q-4 12 -18 12h-424 q-12 0 -17 -12l-96 -234q-27 -59 -27 -107t72 -48h27q27 0 26 -19q0 -18 -28 -18l-101 2q-49 4 -100 4h-39q-36 -6 -158 -6q-45 0 -45 18zM291 1494q1 15 25 53t82 90t122 53q29 0 58 -7q14 -7 34 -12t31 -16q4 0 21 -13q14 -4 20 -10q78 -45 150 -45t122 62q20 27 33 26 q31 0 5 -48t-83 -103q-59 -54 -127 -54t-164 52q-94 52 -143 51q-76 0 -139 -74q-20 -20 -34 -20t-13 15zM403 541q-5 -13 7 -13h348q12 0 8 11l-170 442q-6 16 -9 16t-9 -16z" />
<glyph unicode="&#xe4;" horiz-adv-x="1294" d="M-113 12q-1 18 17 18t30 3h27q57 8 88 43t62 110l471 1096q27 70 53 70q16 0 29 -13q16 -25 32 -61t180 -422q164 -385 271 -633q76 -170 153 -186q39 -6 66 -6q27 -1 27 -19q1 -18 -111 -18t-313 4q-53 4 -54 14q0 14 23 19q26 10 16 39l-139 350q-4 12 -18 12h-424 q-12 0 -17 -12l-96 -234q-27 -59 -27 -107t72 -48h27q27 0 26 -19q0 -18 -28 -18l-101 2q-49 4 -100 4h-39q-36 -6 -158 -6q-45 0 -45 18zM338 1567q0 35 24 65t68 29q43 0 71 -23q27 -22 27 -66t-26 -73t-72 -29q-45 0 -70 29q-23 33 -22 68zM403 541q-5 -13 7 -13h348 q12 0 8 11l-170 442q-6 16 -9 16t-9 -16zM770 1566q0 36 25 66t67 31q42 0 72 -25q27 -26 27 -66t-27 -73q-33 -29 -75 -29q-41 0 -65 30t-24 66z" />
<glyph unicode="&#xe5;" horiz-adv-x="1294" d="M-113 12q-1 18 17 18t30 3h27q57 8 88 43t62 110l471 1096q27 70 53 70q16 0 29 -13q16 -25 32 -61t180 -422q164 -385 271 -633q76 -170 153 -186q39 -6 66 -6q27 -1 27 -19q1 -18 -111 -18t-313 4q-53 4 -54 14q0 14 23 19q26 10 16 39l-139 350q-4 12 -18 12h-424 q-12 0 -17 -12l-96 -234q-27 -59 -27 -107t72 -48h27q27 0 26 -19q0 -18 -28 -18l-101 2q-49 4 -100 4h-39q-36 -6 -158 -6q-45 0 -45 18zM403 541q-5 -13 7 -13h348q12 0 8 11l-170 442q-6 16 -9 16t-9 -16zM412 1582q0 64 82 118q84 53 186 53t154 -34t53 -85 q4 -82 -92 -131q-89 -53 -185 -53t-147 34t-51 98zM537 1602q1 -45 33 -73t77 -28t80 32t35 73q0 40 -28 68t-75 28t-86 -27q-36 -28 -36 -73z" />
<glyph unicode="&#xe6;" horiz-adv-x="1712" d="M-168 12q0 18 25 19q112 0 199 103q11 13 18 18l30 41q20 29 39 51t113 165t203 305t217 327q108 164 125 191q18 27 25 53t24 26l96 -4h492l78 10l12 4l16 4q10 0 10 -17t-18 -165q0 -90 -27 -88q-16 -1 -16 27q0 74 -43 102q-20 14 -74 20t-295 6q-12 0 -12 -16v-487 q0 -18 12 -19q203 0 292 4t112 25q18 23 29 23q12 0 12 -15q0 -14 -10 -97q-10 -82 -11 -134q0 -52 -18 -52t-19 15q-6 59 -8 63q-16 59 -96 68q-51 6 -285 6q-10 0 -10 -16v-349q0 -86 49 -110q48 -27 182 -27t177 21q68 29 82 129q2 27 18 26q18 0 18 -41q0 -92 -22 -192 q-9 -33 -25 -39t-73 -6l-539 10h-41q-60 -6 -160 -6q-35 0 -35 18t31 18t55 7q46 10 54 84t8 371v83q0 14 -17 15h-299q-20 0 -25 -8t-11 -18l-18 -28q-11 -19 -27 -47t-80 -135l-56 -92q-78 -127 -77 -172q0 -59 122 -59q27 -1 27 -19t-35 -18l-164 2q-61 4 -100 4t-92 -4 l-139 -2q-25 0 -25 18zM580 694q-10 -16 8 -16h243q17 0 17 12v436h-8q-154 -240 -260 -432z" />
<glyph unicode="&#xe7;" horiz-adv-x="1443" d="M98 674q0 115 49 244q45 129 162 233q211 184 572 184q162 0 243 -14t121 -20t73 -10q32 -5 32 -23q0 -10 -2 -17l-7 -80l-4 -104q-2 -47 -4 -87t-21 -40t-20 37q-2 96 -69 162q-109 102 -343 102t-345 -98q-166 -143 -166 -453q0 -145 53 -267q95 -218 317 -304 q92 -39 205 -39q112 0 182 16t123 74t61 106t23 48q21 0 21 -29t-14 -111t-23 -120q-10 -38 -49 -54q-92 -39 -326 -39h-43l-154 -112q113 -9 177 -53t65 -116q0 -72 -89 -144q-89 -71 -288 -70q-35 0 -35 20q-1 27 55 27t113 39t58 98q0 125 -162 150q-45 6 -45 14t33 33 l164 123q-283 27 -467 180q-225 188 -226 514z" />
<glyph unicode="&#xe8;" horiz-adv-x="1179" d="M113 1294q0 16 41 17l260 -4h491l76 10l29 8q12 0 12 -16l-2 -6v-9l-8 -37q0 -16 -4 -61v-6q-4 -12 -6 -54t-6 -63t-19 -20q-14 1 -14 31q0 65 -48 98q-19 14 -79 21t-287 7q-12 0 -12 -16v-430q0 -18 12 -19q263 -1 323 5t78 26q6 6 14 12t13 11h2q14 1 14 -15t-11 -105 t-11 -135q1 -46 -17 -46t-18 13t-1 25t-2 23q-1 12 -3 16q-18 59 -101 68q-57 8 -282 8q-10 0 -10 -18v-397q4 -90 54 -118t177 -28t182 23q59 29 78 129q6 27 21 26q16 0 16 -41q0 -109 -25 -192q-8 -33 -24 -39t-144 -6t-260 6l-209 4h-43q-69 -6 -184 -6q-35 0 -35 18 t34 18t58 7q45 10 53 84t9 379v307q0 332 -2 373q-1 41 -17 59q-32 37 -133 37q-31 0 -30 18zM274 1692q0 12 62 32t97 35q34 16 44 17l6 -2q2 -2 15 -25l12 -18q16 -20 92 -95t152 -125q8 -8 11 -9t7 -3l4 -4q4 -8 4 -10q0 -15 -20 -15t-194 73t-224 97q-68 27 -68 52z" />
<glyph unicode="&#xe9;" horiz-adv-x="1179" d="M113 1294q0 16 41 17l260 -4h491l76 10l29 8q12 0 12 -16l-2 -6v-9l-8 -37q0 -16 -4 -61v-6q-4 -12 -6 -54t-6 -63t-19 -20q-14 1 -14 31q0 65 -48 98q-19 14 -79 21t-287 7q-12 0 -12 -16v-430q0 -18 12 -19q263 -1 323 5t78 26q6 6 14 12t13 11h2q14 1 14 -15t-11 -105 t-11 -135q1 -46 -17 -46t-18 13t-1 25t-2 23q-1 12 -3 16q-18 59 -101 68q-57 8 -282 8q-10 0 -10 -18v-397q4 -90 54 -118t177 -28t182 23q59 29 78 129q6 27 21 26q16 0 16 -41q0 -109 -25 -192q-8 -33 -24 -39t-144 -6t-260 6l-209 4h-43q-69 -6 -184 -6q-35 0 -35 18 t34 18t58 7q45 10 53 84t9 379v307q0 332 -2 373q-1 41 -17 59q-32 37 -133 37q-31 0 -30 18zM453 1480q-1 10 27 38q28 26 167 137q170 129 189 130q20 1 40 -33t54 -114q16 -31 -10 -30h-70q-74 -8 -184 -49t-142 -59q-34 -18 -44 -22q-10 -5 -15 -8q-12 0 -12 10z" />
<glyph unicode="&#xea;" horiz-adv-x="1179" d="M113 1294q0 16 41 17l260 -4h491l76 10l29 8q12 0 12 -16l-2 -6v-9l-8 -37q0 -16 -4 -61v-6q-4 -12 -6 -54t-6 -63t-19 -20q-14 1 -14 31q0 65 -48 98q-19 14 -79 21t-287 7q-12 0 -12 -16v-430q0 -18 12 -19q263 -1 323 5t78 26q6 6 14 12t13 11h2q14 1 14 -15t-11 -105 t-11 -135q1 -46 -17 -46t-18 13t-1 25t-2 23q-1 12 -3 16q-18 59 -101 68q-57 8 -282 8q-10 0 -10 -18v-397q4 -90 54 -118t177 -28t182 23q59 29 78 129q6 27 21 26q16 0 16 -41q0 -109 -25 -192q-8 -33 -24 -39t-144 -6t-260 6l-209 4h-43q-69 -6 -184 -6q-35 0 -35 18 t34 18t58 7q45 10 53 84t9 379v307q0 332 -2 373q-1 41 -17 59q-32 37 -133 37q-31 0 -30 18zM270 1470q0 8 19 31q29 29 97 91t133 126q66 62 77 62q10 0 43 -23q53 -45 244 -184q29 -23 29 -31t-11 -18l-59 -60q-14 -14 -24 -14t-34 23q-25 31 -109 97q-85 66 -94 66 t-34 -10q-119 -68 -183 -122t-78 -54q-15 0 -16 20z" />
<glyph unicode="&#xeb;" horiz-adv-x="1179" d="M113 1294q0 16 41 17l260 -4h491l76 10l29 8q12 0 12 -16l-2 -6v-9l-8 -37q0 -16 -4 -61v-6q-4 -12 -6 -54t-6 -63t-19 -20q-14 1 -14 31q0 65 -48 98q-19 14 -79 21t-287 7q-12 0 -12 -16v-430q0 -18 12 -19q263 -1 323 5t78 26q6 6 14 12t13 11h2q14 1 14 -15t-11 -105 t-11 -135q1 -46 -17 -46t-18 13t-1 25t-2 23q-1 12 -3 16q-18 59 -101 68q-57 8 -282 8q-10 0 -10 -18v-397q4 -90 54 -118t177 -28t182 23q59 29 78 129q6 27 21 26q16 0 16 -41q0 -109 -25 -192q-8 -33 -24 -39t-144 -6t-260 6l-209 4h-43q-69 -6 -184 -6q-35 0 -35 18 t34 18t58 7q45 10 53 84t9 379v307q0 332 -2 373q-1 41 -17 59q-32 37 -133 37q-31 0 -30 18zM299 1566q0 36 25 66q26 30 66 29q40 0 73 -23q27 -26 27 -66t-27 -73q-33 -29 -75 -29t-66 30t-23 66zM731 1567q0 35 25 65q24 30 68 31q44 0 69 -25q29 -22 29 -66t-27 -73 t-72 -29t-69 29q-23 33 -23 68z" />
<glyph unicode="&#xec;" horiz-adv-x="833" d="M61 1692q1 12 63 32t96 35q34 16 44 17l6 -2q2 -2 15 -25l12 -18q16 -20 92 -95t152 -125q8 -8 11 -9t7 -3l4 -4q4 -8 4 -10q0 -15 -20 -15q-21 0 -195 73t-223 97q-68 27 -68 52zM137 1296q0 14 43 15l242 -4l231 4q37 0 37 -15q0 -20 -26 -20q-86 0 -103 -28 q-18 -28 -21 -87t-3 -354v-307q0 -316 6 -368t20 -70q23 -30 146 -31q29 0 28 -19q0 -18 -35 -18l-170 2q-70 4 -118 4t-109 -4l-129 -2q-35 0 -35 18t34 18t58 7q43 8 53 78t9 385v307q0 332 -3 373q-5 73 -61 88q-25 8 -59 8t-35 20z" />
<glyph unicode="&#xed;" horiz-adv-x="833" d="M137 1296q0 14 43 15l242 -4l231 4q37 0 37 -15q0 -20 -26 -20q-86 0 -103 -28q-18 -28 -21 -87t-3 -354v-307q0 -316 6 -368t20 -70q23 -30 146 -31q29 0 28 -19q0 -18 -35 -18l-170 2q-70 4 -118 4t-109 -4l-129 -2q-35 0 -35 18t34 18t58 7q43 8 53 78t9 385v307 q0 332 -3 373q-5 73 -61 88q-25 8 -59 8t-35 20zM279 1480q-1 10 27 38q28 26 167 137q169 129 188 130t33 -21t62 -126q14 -31 -11 -30h-69q-76 -8 -182 -48t-142 -58t-46 -24q-10 -5 -15 -8q-12 0 -12 10z" />
<glyph unicode="&#xee;" horiz-adv-x="833" d="M96 1470q0 8 18 28t139 134q121 112 141 130t29 18t42 -23q53 -45 244 -184q29 -23 29 -31t-11 -18l-59 -60q-14 -14 -24 -14t-34 23q-25 31 -180 151q-16 12 -24 12t-33 -10q-119 -68 -183 -122t-78 -54q-15 0 -16 20zM137 1296q0 14 43 15l242 -4l231 4q37 0 37 -15 q0 -20 -26 -20q-86 0 -103 -28q-18 -28 -21 -87t-3 -354v-307q0 -316 6 -368t20 -70q23 -30 146 -31q29 0 28 -19q0 -18 -35 -18l-170 2q-70 4 -118 4t-109 -4l-129 -2q-35 0 -35 18t34 18t58 7q43 8 53 78t9 385v307q0 332 -3 373q-5 73 -61 88q-25 8 -59 8t-35 20z" />
<glyph unicode="&#xef;" horiz-adv-x="833" d="M106 1566q0 36 25 66t66 29q41 0 73 -23q27 -26 27 -66t-27 -73q-32 -29 -74 -29t-66 30t-24 66zM137 1296q0 14 43 15l242 -4l231 4q37 0 37 -15q0 -20 -26 -20q-86 0 -103 -28q-18 -28 -21 -87t-3 -354v-307q0 -316 6 -368t20 -70q23 -30 146 -31q29 0 28 -19 q0 -18 -35 -18l-170 2q-70 4 -118 4t-109 -4l-129 -2q-35 0 -35 18t34 18t58 7q43 8 53 78t9 385v307q0 332 -3 373q-5 73 -61 88q-25 8 -59 8t-35 20zM539 1567q1 35 25 65t68 31q44 0 68 -25q29 -22 29 -66t-29 -73q-24 -29 -69 -29t-70 29q-23 33 -22 68z" />
<glyph unicode="&#xf0;" horiz-adv-x="1705" d="M104 631l9 61q4 16 24 17h158v98q0 332 -2 373q-1 41 -17 59q-32 37 -133 37q-31 0 -30 18q0 16 41 17l260 -4l293 4q398 0 566 -85q91 -46 159 -114q174 -174 174 -456t-195 -476q-75 -72 -231 -136t-346 -64l-318 14l-113 6h-43q-69 -6 -184 -6q-35 0 -35 18t34 18 t58 7q45 10 53 84t9 379v110h-182q-10 0 -9 21zM537 528q0 -353 24 -387q53 -71 216 -71t256 26t171 97q144 123 144 413t-175 453q-175 162 -487 162q-92 1 -120 -11t-28 -44t-1 -332v-123h360q14 0 12 -21l-10 -65q-4 -16 -20 -17h-342v-80z" />
<glyph unicode="&#xf1;" horiz-adv-x="1722" d="M84 12q0 18 40 18t74 10q34 9 40 50q8 29 12 160l16 1032q0 59 31 59q20 0 78 -57l59 -59q20 -20 86 -89q67 -70 248 -247t305 -305q141 -141 164 -166l82 -80h8l-18 774q-5 80 -17 111t-44 42t-78 11t-46 17t45 18l230 -4l176 4q41 1 41 -17t-32 -18t-60 -7t-42 -36 q-13 -29 -18 -107l-20 -1097q0 -55 -29 -56q-37 0 -74 37q-183 170 -413 392t-280 275t-150 157t-105 108h-6l21 -711q2 -166 61 -188q37 -12 81 -12q44 -1 44 -19t-41 -18l-147 2q-53 4 -87 4h-34q-30 -6 -153 -6q-48 0 -48 18zM504 1494q0 15 24 53t83 90q58 52 122 53 q29 0 58 -7q14 -7 34 -12t31 -16q4 0 21 -13q16 -4 20 -10q79 -45 151 -45t121 62q20 27 33 26q31 0 5 -48t-83 -103q-60 -54 -128 -54t-162 52t-144 51q-76 0 -139 -74q-19 -20 -33 -20t-14 15z" />
<glyph unicode="&#xf2;" horiz-adv-x="1693" d="M98 653q0 208 111 369q55 88 143 158q80 68 212 112t290 43q338 0 538 -175t200 -479t-206 -507t-550 -203q-188 0 -336 62q-145 66 -230 164q-172 207 -172 456zM364 720q1 -290 148 -472t397 -182q29 0 95 8q128 35 210 135q45 57 77 163t32 249q-1 285 -151 453 t-371 169q-166 0 -293 -104q-145 -130 -144 -419zM492 1692q0 12 62 32t96 35q34 16 44 17l6 -2l5 -5l10 -20l12 -18q16 -20 92 -95t152 -125q8 -8 11 -9t7 -3l4 -4q4 -8 4 -10q0 -15 -20 -15q-21 0 -195 73t-223 97q-68 27 -67 52z" />
<glyph unicode="&#xf3;" horiz-adv-x="1693" d="M98 653q0 208 111 369q55 88 143 158q80 68 212 112t290 43q338 0 538 -175t200 -479t-206 -507t-550 -203q-188 0 -336 62q-145 66 -230 164q-172 207 -172 456zM364 720q1 -290 148 -472t397 -182q29 0 95 8q128 35 210 135q45 57 77 163t32 249q-1 285 -151 453 t-371 169q-166 0 -293 -104q-145 -130 -144 -419zM709 1480q-1 10 27 38q28 26 167 137q169 129 188 130t33 -21t62 -126q14 -31 -10 -30h-70q-76 -8 -182 -48t-142 -58t-46 -24q-10 -5 -15 -8q-12 0 -12 10z" />
<glyph unicode="&#xf4;" horiz-adv-x="1693" d="M98 653q0 208 111 369q55 88 143 158q80 68 212 112t290 43q338 0 538 -175t200 -479t-206 -507t-550 -203q-188 0 -336 62q-145 66 -230 164q-172 207 -172 456zM364 720q1 -290 148 -472t397 -182q29 0 95 8q128 35 210 135q45 57 77 163t32 249q-1 285 -151 453 t-371 169q-166 0 -293 -104q-145 -130 -144 -419zM526 1470q0 8 18 28t140 134q120 112 140 130t29 18t42 -23q53 -45 244 -184q29 -23 29 -31t-11 -18l-59 -60q-14 -14 -24 -14t-34 23q-25 31 -180 151q-16 12 -24 12t-33 -10q-119 -68 -183 -122t-78 -54q-15 0 -16 20z " />
<glyph unicode="&#xf5;" horiz-adv-x="1693" d="M98 653q0 208 111 369q55 88 143 158q80 68 212 112t290 43q338 0 538 -175t200 -479t-206 -507t-550 -203q-188 0 -336 62q-145 66 -230 164q-172 207 -172 456zM364 720q1 -290 148 -472t397 -182q29 0 95 8q128 35 210 135q45 57 77 163t32 249q-1 285 -151 453 t-371 169q-166 0 -293 -104q-145 -130 -144 -419zM490 1494q0 15 24 53q25 38 83 90t122 53q18 0 29 -2l51 -13q10 0 26 -9q15 -9 18 -10t21 -14q14 -6 19 -10q79 -45 151 -45t121 62q20 27 33 26q16 0 16 -16q0 -10 -18 -45t-76 -90q-60 -54 -128 -54t-163 52 q-93 52 -155 51q-62 0 -127 -74q-19 -20 -33 -20t-14 15z" />
<glyph unicode="&#xf6;" horiz-adv-x="1693" d="M98 653q0 208 111 369q55 88 143 158q80 68 212 112t290 43q338 0 538 -175t200 -479t-206 -507t-550 -203q-188 0 -336 62q-145 66 -230 164q-172 207 -172 456zM364 720q1 -290 148 -472t397 -182q29 0 95 8q128 35 210 135q45 57 77 163t32 249q-1 285 -151 453 t-371 169q-166 0 -293 -104q-145 -130 -144 -419zM536 1566q0 36 26 66q24 30 65 29q41 0 73 -23q27 -26 27 -66t-27 -73q-32 -29 -74 -29t-66 30t-24 66zM969 1567q1 35 25 65t68 31q44 0 68 -25q29 -22 29 -66t-29 -73q-24 -29 -69 -29t-70 29q-23 33 -22 68z" />
<glyph unicode="&#xf7;" horiz-adv-x="1124" d="M82 457v125h960v-125h-960zM448 180q0 49 31 82q31 31 80 31t80 -31q29 -35 29 -83t-31 -82t-80 -34h-2q-45 0 -76 34t-31 83zM448 862q0 49 32 81q30 32 79 32t79 -33t30 -82t-31 -82t-80 -33h-2q-45 0 -76 34t-31 83z" />
<glyph unicode="&#xf8;" horiz-adv-x="1683" d="M98 653q0 199 107 369q68 98 143 158q76 68 208 112t288 43q287 0 473 -127l135 144q10 10 25 -4l51 -54q8 -8 0 -18l-133 -133q184 -170 184 -468t-204 -501t-525 -203t-479 133l-152 -153q-10 -8 -18 0l-56 51q-12 10 -4 18l154 148q-197 193 -197 485zM367 705 q0 -221 88 -377l721 733q-131 180 -379 180q-162 0 -289 -104q-141 -122 -141 -432zM510 246q139 -182 397 -183q51 0 92 11q41 6 103 42t106 93q105 144 105 438q0 170 -84 328z" />
<glyph unicode="&#xf9;" horiz-adv-x="1556" d="M37 1293q0 17 39 18l270 -4l232 4q39 0 38 -17q0 -18 -23 -18q-86 0 -106 -33q-16 -23 -19 -82t-3 -354v-244q0 -182 33 -274q32 -92 112 -155q80 -62 222 -62t239 92q68 66 86 162t19 262v219q0 221 -5 369q-2 45 -18 63q-33 37 -123 37q-31 0 -31 17t37 18h115 q33 0 49 -4h51l211 4q37 1 37 -17q1 -18 -25 -18q-87 0 -106 -33q-16 -23 -18 -67q-4 -147 -4 -369v-186q0 -175 -34 -307t-138 -218q-150 -125 -381 -125q-279 0 -412 119q-164 142 -164 461v256q0 350 -2 382t-17 50q-31 37 -130 37q-31 0 -31 17zM424 1692q0 12 62 32 t97 35q34 16 44 17l4 -2h4q0 -4 4 -9l8 -16l12 -18q11 -17 85 -89t143 -120l14 -11l17 -8l8 -8q4 -8 4 -10q0 -15 -20 -15t-195 73q-174 73 -223 97q-68 27 -68 52z" />
<glyph unicode="&#xfa;" horiz-adv-x="1556" d="M37 1293q0 17 39 18l270 -4l232 4q39 0 38 -17q0 -18 -23 -18q-86 0 -106 -33q-16 -23 -19 -82t-3 -354v-244q0 -182 33 -274q32 -92 112 -155q80 -62 222 -62t239 92q68 66 86 162t19 262v219q0 221 -5 369q-2 45 -18 63q-33 37 -123 37q-31 0 -31 17t37 18h115 q33 0 49 -4h51l211 4q37 1 37 -17q1 -18 -25 -18q-87 0 -106 -33q-16 -23 -18 -67q-4 -147 -4 -369v-186q0 -175 -34 -307t-138 -218q-150 -125 -381 -125q-279 0 -412 119q-164 142 -164 461v256q0 350 -2 382t-17 50q-31 37 -130 37q-31 0 -31 17zM641 1480q-1 10 27 38 q28 26 154 124t160 121t48 23q24 1 88 -148q16 -31 -10 -30h-70q-74 -8 -184 -49t-142 -59l-59 -30q-12 0 -12 10z" />
<glyph unicode="&#xfb;" horiz-adv-x="1556" d="M37 1293q0 17 39 18l270 -4l232 4q39 0 38 -17q0 -18 -23 -18q-86 0 -106 -33q-16 -23 -19 -82t-3 -354v-244q0 -182 33 -274q32 -92 112 -155q80 -62 222 -62t239 92q68 66 86 162t19 262v219q0 221 -5 369q-2 45 -18 63q-33 37 -123 37q-31 0 -31 17t37 18h115 q33 0 49 -4h51l211 4q37 1 37 -17q1 -18 -25 -18q-87 0 -106 -33q-16 -23 -18 -67q-4 -147 -4 -369v-186q0 -175 -34 -307t-138 -218q-150 -125 -381 -125q-279 0 -412 119q-164 142 -164 461v256q0 350 -2 382t-17 50q-31 37 -130 37q-31 0 -31 17zM459 1470q0 8 18 31 q29 29 97 91t100 94q33 31 50 47q17 15 34 31t27 16t42 -23q53 -45 244 -184q29 -23 29 -31t-10 -18l-60 -60q-14 -14 -24 -14t-33 23q-25 31 -180 151q-17 12 -25 12t-33 -10q-119 -68 -181 -122t-79 -54q-16 0 -16 20z" />
<glyph unicode="&#xfc;" horiz-adv-x="1556" d="M37 1293q0 17 39 18l270 -4l232 4q39 0 38 -17q0 -18 -23 -18q-86 0 -106 -33q-16 -23 -19 -82t-3 -354v-244q0 -182 33 -274q32 -92 112 -155q80 -62 222 -62t239 92q68 66 86 162t19 262v219q0 221 -5 369q-2 45 -18 63q-33 37 -123 37q-31 0 -31 17t37 18h115 q33 0 49 -4h51l211 4q37 1 37 -17q1 -18 -25 -18q-87 0 -106 -33q-16 -23 -18 -67q-4 -147 -4 -369v-186q0 -175 -34 -307t-138 -218q-150 -125 -381 -125q-279 0 -412 119q-164 142 -164 461v256q0 350 -2 382t-17 50q-31 37 -130 37q-31 0 -31 17zM487 1566q0 36 25 66 t66 29q41 0 73 -23q27 -26 27 -66t-27 -73q-32 -29 -74 -29t-66 30t-24 66zM920 1567q0 35 24 65t69 31q44 0 68 -25q29 -22 29 -66t-29 -73q-24 -29 -69 -29t-70 29q-23 33 -22 68z" />
<glyph unicode="&#xfd;" horiz-adv-x="1208" d="M-92 1294q0 16 35 17l225 -4l205 4q27 0 26 -17q0 -12 -26 -18q-4 -4 -22 -7q-36 -6 5 -83q54 -86 299 -510q2 4 128 220t147 258q53 105 -19 120q-33 8 -32 20q0 16 30 17l176 -4l193 4q33 0 33 -15q0 -20 -35 -20t-78 -20t-94 -82q-51 -61 -184 -277 q-139 -219 -164 -277t-25 -178v-139q0 -76 5 -167t73 -99q39 -6 80 -6q41 -1 41 -19t-39 -18l-166 2q-66 4 -116 4t-109 -4l-125 -2q-39 0 -39 18t34 18t58 7q49 8 55 87t6 179v143q0 94 -40 183q-13 27 -135 217t-190 286t-111 120q-44 24 -75 24t-30 18zM467 1480 q-1 10 27 38q28 26 154 124t160 121t48 23t27 -22q14 -22 61 -126q14 -31 -10 -30h-70q-76 -8 -182 -48t-142 -58l-61 -32q-12 0 -12 10z" />
<glyph unicode="&#xfe;" horiz-adv-x="1224" d="M113 1294q0 16 41 17l258 -4l268 4q35 1 35 -17t-27 -18t-70 -8q-78 -10 -81 -88q-2 -43 -2 -156q80 6 157 6q246 0 361 -98q33 -27 61 -84t27 -123q0 -184 -125 -299q-131 -115 -328 -115q-47 0 -53 2q-23 0 -23 17q0 23 52 22q90 0 166 79t77 198q0 168 -100 262 q-66 59 -182 59q-51 0 -76 -12q-14 -2 -14 -33v-405q0 -306 7 -360t19 -77q22 -32 139 -32q25 -1 25 -19t-37 -18l-164 2q-70 4 -118 4t-105 -4l-125 -2q-35 0 -35 18t34 18t58 7q45 10 53 84t9 379v307q0 332 -2 369t-19 65q-35 35 -131 35q-31 0 -30 18z" />
<glyph unicode="&#xff;" horiz-adv-x="1208" d="M-92 1294q0 16 35 17l225 -4l205 4q27 0 26 -17q0 -12 -26 -18q-4 -4 -22 -7q-36 -6 5 -83q54 -86 299 -510q2 4 128 220t147 258q53 105 -19 120q-33 8 -32 20q0 16 30 17l176 -4l193 4q33 0 33 -15q0 -20 -35 -20t-78 -20t-94 -82q-51 -61 -184 -277 q-139 -219 -164 -277t-25 -178v-139q0 -76 5 -167t73 -99q39 -6 80 -6q41 -1 41 -19t-39 -18l-166 2q-66 4 -116 4t-109 -4l-125 -2q-39 0 -39 18t34 18t58 7q49 8 55 87t6 179v143q0 94 -40 183q-13 27 -135 217t-190 286t-111 120q-44 24 -75 24t-30 18zM294 1566 q0 36 26 66q24 30 65 29q41 0 74 -23q27 -26 27 -66t-27 -73q-33 -29 -75 -29t-66 30t-24 66zM727 1567q0 35 25 65q24 30 68 31q44 0 69 -25q29 -22 29 -66t-27 -73t-72 -29t-69 29q-23 33 -23 68z" />
<glyph unicode="&#x152;" horiz-adv-x="2437" d="M139 545q-51 230 2 454q27 113 93 220q219 352 688 352q369 0 571 -234h6q0 129 -2 146l-4 41q0 18 20 18q4 0 11 -2h18q38 -4 340 -4t334 16q8 0 29 7q12 1 12 -13t-4 -22l-6 -45q-2 -27 -6 -72v-6q-5 -19 -7 -67t-5 -66t-20 -19q-17 0 -17 37q-1 81 -52 115 q-27 16 -94 24t-295 9q-14 0 -14 -21v-516q0 -23 14 -23q266 0 335 6t91 29q19 27 33 27t14 -18l-8 -70q0 -8 -8 -80q0 -27 -2 -49l-6 -88q0 -39 -18 -39t-19 18q-6 70 -9 74q-14 70 -114 80q-68 8 -291 8q-12 0 -12 -20v-480q4 -110 47 -142t190 -32t201 25q72 35 92 151 q7 31 23 31t16 -37q0 -122 -18 -192t-35 -79q-18 -9 -84 -9l-588 12h-20q-10 -2 -21 -2l-29 -4q-20 0 -20 14t4 29l2 33q2 14 2 112q-223 -217 -590 -217q-164 0 -301 49t-225 129t-154 185q-57 102 -90 217zM391 812q0 -334 178 -540q178 -207 432 -206q223 0 359 159 q131 160 131 471q0 454 -276 668q-139 106 -339 106t-344 -161q-141 -163 -141 -497z" />
<glyph unicode="&#x153;" horiz-adv-x="2185" d="M98 655q0 125 43 245t125 214q80 100 222 160t326 61q184 0 304 -55q119 -55 207 -156h4q0 121 -2 136v18q-2 6 -2 16q0 16 16 17h13l30 -4h527q35 0 76 10l28 8q13 0 13 -12t-5 -19l-4 -37q0 -43 -8 -67l-2 -47q-4 -90 -27 -88q-16 0 -16 42t-29 74q-43 30 -94 34 q-51 5 -287 5q-12 0 -12 -16v-428q0 -18 12 -18q202 0 292 3t110 25t31 23q10 1 10 -15t-11 -105q-12 -89 -12 -134t-17 -45t-17 13t-2 23t-2 24q-6 76 -103 85q-49 6 -279 6q-12 0 -12 -16v-395q4 -92 54 -120t180 -28t174 21q63 27 80 129q6 27 20 26q18 0 19 -41 q0 -109 -25 -192q-8 -33 -24 -39t-159 -6l-429 10l-86 -4l-9 -2q-16 0 -16 12v6q6 18 6 156q-207 -197 -528 -197q-177 -1 -317 61t-222 164q-164 203 -164 459zM360 692q0 -282 154 -454q156 -168 379 -168q184 0 307 135q127 129 127 396t-149 454q-150 186 -385 186 q-185 0 -309 -133q-124 -134 -124 -416z" />
<glyph unicode="&#x178;" horiz-adv-x="1372" d="M-100 1524q0 18 39 18l61 -2h57q69 -4 125 -4t107 4l127 2q31 0 30 -18q0 -10 -37 -20q-59 -16 -23 -86q53 -105 359 -636q7 16 147 270t161 294q29 68 29 108t-44 49q-37 8 -37 21q0 18 35 18l99 -2q45 -4 96 -4l182 4l35 2q37 0 37 -18t-42 -18t-86 -23 q-43 -22 -103 -93t-214 -331q-156 -254 -186 -329t-31 -206v-168q0 -118 6 -212t84 -105q51 -8 93 -8q42 -1 43 -19q0 -18 -43 -18l-185 2q-74 4 -129 4t-119 -4l-137 -2q-45 0 -45 18t36 18t69 9q57 12 63 105t6 212v168q0 109 -47 215q-8 23 -166 279t-214 338t-112 116 t-92 34q-35 0 -34 18zM426 1796q0 36 25 65t65 29t74 -22q26 -27 26 -67t-26 -72q-33 -29 -75 -29q-41 0 -65 30t-24 66zM858 1796q0 34 25 66q25 30 69 30t68 -24q29 -23 29 -67t-29 -72q-25 -29 -70 -29t-69 29q-23 33 -23 67z" />
<glyph unicode="&#x2000;" horiz-adv-x="1008" />
<glyph unicode="&#x2001;" horiz-adv-x="2016" />
<glyph unicode="&#x2002;" horiz-adv-x="1008" />
<glyph unicode="&#x2003;" horiz-adv-x="2016" />
<glyph unicode="&#x2004;" horiz-adv-x="672" />
<glyph unicode="&#x2005;" horiz-adv-x="504" />
<glyph unicode="&#x2006;" horiz-adv-x="336" />
<glyph unicode="&#x2007;" horiz-adv-x="336" />
<glyph unicode="&#x2008;" horiz-adv-x="252" />
<glyph unicode="&#x2009;" horiz-adv-x="403" />
<glyph unicode="&#x200a;" horiz-adv-x="112" />
<glyph unicode="&#x2010;" horiz-adv-x="870" d="M74 477l30 141q4 20 14 24t36 3h581q66 0 66 -29q0 -20 -21 -26q-23 -10 -71 -19l-283 -47q-212 -39 -238 -48t-57 -22t-41 -14q-25 0 -16 37z" />
<glyph unicode="&#x2011;" horiz-adv-x="870" d="M74 477l30 141q4 20 14 24t36 3h581q66 0 66 -29q0 -20 -21 -26q-23 -10 -71 -19l-283 -47q-212 -39 -238 -48t-57 -22t-41 -14q-25 0 -16 37z" />
<glyph unicode="&#x2012;" horiz-adv-x="870" d="M74 477l30 141q4 20 14 24t36 3h581q66 0 66 -29q0 -20 -21 -26q-23 -10 -71 -19l-283 -47q-212 -39 -238 -48t-57 -22t-41 -14q-25 0 -16 37z" />
<glyph unicode="&#x2013;" horiz-adv-x="1164" d="M74 477l42 141q6 20 20 24t51 3h815q93 0 93 -29q0 -20 -29 -26q-33 -10 -100 -19l-397 -47q-298 -39 -334.5 -48t-80 -22t-57.5 -14q-35 0 -23 37z" />
<glyph unicode="&#x2014;" horiz-adv-x="2188" d="M78 477l84 141q11 20 39 24t101 3h1632q185 0 185 -29q0 -20 -59 -26q-65 -10 -199 -19l-795 -47q-595 -39 -668 -48t-160 -22t-115 -14q-71 0 -45 37z" />
<glyph unicode="&#x202f;" horiz-adv-x="403" />
<glyph unicode="&#x205f;" horiz-adv-x="504" />
<glyph unicode="&#x25fc;" horiz-adv-x="1310" d="M0 0v1310h1310v-1310h-1310z" />
</font>
</defs>
</svg>
